<?xml version="1.0" encoding="UTF-8"?>
<svg version="1.1" xmlns="http://www.w3.org/2000/svg" width="180" height="196">
<path d="M0 0 C11.88 0 23.76 0 36 0 C36 0.99 36 1.98 36 3 C38.97 3 41.94 3 45 3 C45.495 4.98 45.495 4.98 46 7 C48.31 7 50.62 7 53 7 C53.495 9.475 53.495 9.475 54 12 C55.65 12.33 57.3 12.66 59 13 C59 13.99 59 14.98 59 16 C60.98 16.495 60.98 16.495 63 17 C63 18.32 63 19.64 63 21 C66.96 21 70.92 21 75 21 C75.33 22.32 75.66 23.64 76 25 C77.65 25.33 79.3 25.66 81 26 C81 30.29 81 34.58 81 39 C78.525 39.495 78.525 39.495 76 40 C76.08378906 40.79921875 76.16757813 41.5984375 76.25390625 42.421875 C76.96017118 50.03880822 77.17702515 57.41472682 76 65 C75 66 75 66 71.4375 66.0625 C70.303125 66.041875 69.16875 66.02125 68 66 C68 66.99 68 67.98 68 69 C70.31 69 72.62 69 75 69 C75.33 70.65 75.66 72.3 76 74 C78.64 74 81.28 74 84 74 C84.38218767 75.65614657 84.71395102 77.32457024 85 79 C84 80 84 80 82.15234375 80.09765625 C80.1015625 80.06510417 78.05078125 80.03255208 76 80 C76 82.64 76 85.28 76 88 C74.68 88.33 73.36 88.66 72 89 C72 91.64 72 94.28 72 97 C70.68 97.33 69.36 97.66 68 98 C68 100.31 68 102.62 68 105 C66.35 105.33 64.7 105.66 63 106 C62.67 107.65 62.34 109.3 62 111 C61.01 111 60.02 111 59 111 C59 120.24 59 129.48 59 139 C60.32 139.33 61.64 139.66 63 140 C63 145.61 63 151.22 63 157 C65.64 157 68.28 157 71 157 C71.33 158.32 71.66 159.64 72 161 C73.32 161.33 74.64 161.66 76 162 C76 164.97 76 167.94 76 171 C74.68 171.33 73.36 171.66 72 172 C71.67 173.65 71.34 175.3 71 177 C63.74 177 56.48 177 49 177 C48.505 174.525 48.505 174.525 48 172 C47.34 172 46.68 172 46 172 C45.67 173.65 45.34 175.3 45 177 C25.86 177 6.72 177 -13 177 C-13.33 175.68 -13.66 174.36 -14 173 C-14.66 173 -15.32 173 -16 173 C-16.33 174.32 -16.66 175.64 -17 177 C-24.26 177 -31.52 177 -39 177 C-39.33 175.35 -39.66 173.7 -40 172 C-41.65 171.67 -43.3 171.34 -45 171 C-45 168.03 -45 165.06 -45 162 C-43.35 161.67 -41.7 161.34 -40 161 C-39.505 159.02 -39.505 159.02 -39 157 C-36.36 157 -33.72 157 -31 157 C-31 154.69 -31 152.38 -31 150 C-32.65 149.67 -34.3 149.34 -36 149 C-36 133.16 -36 117.32 -36 101 C-33.525 100.505 -33.525 100.505 -31 100 C-31 99.34 -31 98.68 -31 98 C-32.65 97.67 -34.3 97.34 -36 97 C-36 95.68 -36 94.36 -36 93 C-37.32 92.67 -38.64 92.34 -40 92 C-40 86.72 -40 81.44 -40 76 C-42.64 76 -45.28 76 -48 76 C-49 75 -49 75 -49.0625 72.4375 C-49.041875 71.633125 -49.02125 70.82875 -49 70 C-47.02 69.505 -47.02 69.505 -45 69 C-45 66.36 -45 63.72 -45 61 C-42.525 60.505 -42.525 60.505 -40 60 C-40 59.34 -40 58.68 -40 58 C-41.28197266 58.01740234 -41.28197266 58.01740234 -42.58984375 58.03515625 C-43.69457031 58.04417969 -44.79929687 58.05320313 -45.9375 58.0625 C-47.03964844 58.07410156 -48.14179687 58.08570313 -49.27734375 58.09765625 C-52 58 -52 58 -53 57 C-53.125 54.5 -53.125 54.5 -53 52 C-52 51 -52 51 -49.27734375 50.90234375 C-48.17519531 50.91394531 -47.07304688 50.92554688 -45.9375 50.9375 C-44.28041016 50.95103516 -44.28041016 50.95103516 -42.58984375 50.96484375 C-41.73519531 50.97644531 -40.88054688 50.98804688 -40 51 C-39.67 49.68 -39.34 48.36 -39 47 C-38.01 47 -37.02 47 -36 47 C-36 42.05 -36 37.1 -36 32 C-37.32 31.67 -38.64 31.34 -40 31 C-40 26.38 -40 21.76 -40 17 C-38.68 16.67 -37.36 16.34 -36 16 C-35.67 14.68 -35.34 13.36 -35 12 C-33.68 12 -32.36 12 -31 12 C-30.67 10.68 -30.34 9.36 -30 8 C-27.03 8 -24.06 8 -21 8 C-20.505 9.98 -20.505 9.98 -20 12 C-19.34 12 -18.68 12 -18 12 C-17.67 10.35 -17.34 8.7 -17 7 C-14.36 7 -11.72 7 -9 7 C-8.67 5.68 -8.34 4.36 -8 3 C-6.865625 2.87625 -5.73125 2.7525 -4.5625 2.625 C-3.386875 2.41875 -2.21125 2.2125 -1 2 C-0.67 1.34 -0.34 0.68 0 0 Z " fill="#C19785" transform="translate(64,3)"/>
<path d="M0 0 C11.88 0 23.76 0 36 0 C36 0.99 36 1.98 36 3 C38.97 3 41.94 3 45 3 C45.495 4.98 45.495 4.98 46 7 C48.31 7 50.62 7 53 7 C53.495 9.475 53.495 9.475 54 12 C55.65 12.33 57.3 12.66 59 13 C59 13.99 59 14.98 59 16 C60.98 16.495 60.98 16.495 63 17 C63 18.32 63 19.64 63 21 C66.96 21 70.92 21 75 21 C75.33 22.32 75.66 23.64 76 25 C77.65 25.33 79.3 25.66 81 26 C81 30.29 81 34.58 81 39 C78.525 39.495 78.525 39.495 76 40 C76.08378906 40.79921875 76.16757813 41.5984375 76.25390625 42.421875 C76.96017118 50.03880822 77.17702515 57.41472682 76 65 C75 66 75 66 71.4375 66.0625 C70.303125 66.041875 69.16875 66.02125 68 66 C67.505 67.98 67.505 67.98 67 70 C66.67 68.68 66.34 67.36 66 66 C63.36 66 60.72 66 58 66 C58 64.35 58 62.7 58 61 C52.06 61 46.12 61 40 61 C40 62.65 40 64.3 40 66 C34.39 66 28.78 66 23 66 C23 67.32 23 68.64 23 70 C20.03 70 17.06 70 14 70 C14 71.65 14 73.3 14 75 C11.03 75 8.06 75 5 75 C5 73.35 5 71.7 5 70 C3.35 70 1.7 70 0 70 C0 67.36 0 64.72 0 62 C-1.32 62 -2.64 62 -4 62 C-4 60.35 -4 58.7 -4 57 C-8.29 57 -12.58 57 -17 57 C-17 55.35 -17 53.7 -17 52 C-18.32 52 -19.64 52 -21 52 C-21 50.68 -21 49.36 -21 48 C-25.62 48 -30.24 48 -35 48 C-35 49.65 -35 51.3 -35 53 C-36.32 53 -37.64 53 -39 53 C-39 54.32 -39 55.64 -39 57 C-36.03 57 -33.06 57 -30 57 C-30 58.32 -30 59.64 -30 61 C-32.97 61 -35.94 61 -39 61 C-39 63.97 -39 66.94 -39 70 C-34.71 70 -30.42 70 -26 70 C-26 71.32 -26 72.64 -26 74 C-24.35 74 -22.7 74 -21 74 C-21 75.65 -21 77.3 -21 79 C-19.68 79 -18.36 79 -17 79 C-17 81.97 -17 84.94 -17 88 C-18.65 88 -20.3 88 -22 88 C-22 85.03 -22 82.06 -22 79 C-23.32 79 -24.64 79 -26 79 C-26 77.68 -26 76.36 -26 75 C-28.64 75 -31.28 75 -34 75 C-34 80.61 -34 86.22 -34 92 C-32.68 92 -31.36 92 -30 92 C-30 93.32 -30 94.64 -30 96 C-28.68 96 -27.36 96 -26 96 C-26 97.65 -26 99.3 -26 101 C-27.32 101 -28.64 101 -30 101 C-30 116.84 -30 132.68 -30 149 C-28.68 149 -27.36 149 -26 149 C-26 151.97 -26 154.94 -26 158 C-24.35 158 -22.7 158 -21 158 C-21 160.97 -21 163.94 -21 167 C-18.03 167 -15.06 167 -12 167 C-12 168.32 -12 169.64 -12 171 C6.48 171 24.96 171 44 171 C44 169.68 44 168.36 44 167 C46.97 167 49.94 167 53 167 C53 165.35 53 163.7 53 162 C54.65 162 56.3 162 58 162 C58 155.07 58 148.14 58 141 C58.66 141 59.32 141 60 141 C60 140.34 60 139.68 60 139 C60.99 139.33 61.98 139.66 63 140 C63 145.61 63 151.22 63 157 C65.64 157 68.28 157 71 157 C71.33 158.32 71.66 159.64 72 161 C73.32 161.33 74.64 161.66 76 162 C76 164.97 76 167.94 76 171 C74.68 171.33 73.36 171.66 72 172 C71.67 173.65 71.34 175.3 71 177 C63.74 177 56.48 177 49 177 C48.505 174.525 48.505 174.525 48 172 C47.34 172 46.68 172 46 172 C45.67 173.65 45.34 175.3 45 177 C25.86 177 6.72 177 -13 177 C-13.33 175.68 -13.66 174.36 -14 173 C-14.66 173 -15.32 173 -16 173 C-16.33 174.32 -16.66 175.64 -17 177 C-24.26 177 -31.52 177 -39 177 C-39.33 175.35 -39.66 173.7 -40 172 C-41.65 171.67 -43.3 171.34 -45 171 C-45 168.03 -45 165.06 -45 162 C-43.35 161.67 -41.7 161.34 -40 161 C-39.505 159.02 -39.505 159.02 -39 157 C-36.36 157 -33.72 157 -31 157 C-31 154.69 -31 152.38 -31 150 C-32.65 149.67 -34.3 149.34 -36 149 C-36 133.16 -36 117.32 -36 101 C-33.525 100.505 -33.525 100.505 -31 100 C-31 99.34 -31 98.68 -31 98 C-32.65 97.67 -34.3 97.34 -36 97 C-36 95.68 -36 94.36 -36 93 C-37.32 92.67 -38.64 92.34 -40 92 C-40 86.72 -40 81.44 -40 76 C-42.64 76 -45.28 76 -48 76 C-49 75 -49 75 -49.0625 72.4375 C-49.041875 71.633125 -49.02125 70.82875 -49 70 C-47.02 69.505 -47.02 69.505 -45 69 C-45 66.36 -45 63.72 -45 61 C-42.525 60.505 -42.525 60.505 -40 60 C-40 59.34 -40 58.68 -40 58 C-41.28197266 58.01740234 -41.28197266 58.01740234 -42.58984375 58.03515625 C-43.69457031 58.04417969 -44.79929687 58.05320313 -45.9375 58.0625 C-47.03964844 58.07410156 -48.14179687 58.08570313 -49.27734375 58.09765625 C-52 58 -52 58 -53 57 C-53.125 54.5 -53.125 54.5 -53 52 C-52 51 -52 51 -49.27734375 50.90234375 C-48.17519531 50.91394531 -47.07304688 50.92554688 -45.9375 50.9375 C-44.28041016 50.95103516 -44.28041016 50.95103516 -42.58984375 50.96484375 C-41.73519531 50.97644531 -40.88054688 50.98804688 -40 51 C-39.67 49.68 -39.34 48.36 -39 47 C-38.01 47 -37.02 47 -36 47 C-36 42.05 -36 37.1 -36 32 C-37.32 31.67 -38.64 31.34 -40 31 C-40 26.38 -40 21.76 -40 17 C-38.68 16.67 -37.36 16.34 -36 16 C-35.67 14.68 -35.34 13.36 -35 12 C-33.68 12 -32.36 12 -31 12 C-30.67 10.68 -30.34 9.36 -30 8 C-27.03 8 -24.06 8 -21 8 C-20.505 9.98 -20.505 9.98 -20 12 C-19.34 12 -18.68 12 -18 12 C-17.67 10.35 -17.34 8.7 -17 7 C-14.36 7 -11.72 7 -9 7 C-8.67 5.68 -8.34 4.36 -8 3 C-6.865625 2.87625 -5.73125 2.7525 -4.5625 2.625 C-3.386875 2.41875 -2.21125 2.2125 -1 2 C-0.67 1.34 -0.34 0.68 0 0 Z " fill="#C29886" transform="translate(64,3)"/>
<path d="M0 0 C4.62 0 9.24 0 14 0 C14 1.32 14 2.64 14 4 C15.32 4 16.64 4 18 4 C18 5.65 18 7.3 18 9 C22.29 9 26.58 9 31 9 C31 10.65 31 12.3 31 14 C32.32 14 33.64 14 35 14 C35 16.64 35 19.28 35 22 C36.65 22 38.3 22 40 22 C40 23.65 40 25.3 40 27 C42.97 27 45.94 27 49 27 C49 25.35 49 23.7 49 22 C51.97 22 54.94 22 58 22 C58 20.68 58 19.36 58 18 C63.61 18 69.22 18 75 18 C75 16.35 75 14.7 75 13 C80.94 13 86.88 13 93 13 C93 14.65 93 16.3 93 18 C95.01822917 17.90234375 97.03645833 17.8046875 99.0546875 17.70703125 C99.69664062 17.80371094 100.33859375 17.90039062 101 18 C101.99 19.485 101.99 19.485 103 21 C103.99 21 104.98 21 106 21 C106 22.65 106 24.3 106 26 C103.03 26 100.06 26 97 26 C97 27.65 97 29.3 97 31 C99.97 31 102.94 31 106 31 C106 32.32 106 33.64 106 35 C100.06 35 94.12 35 88 35 C88 36.32 88 37.64 88 39 C86.68 39 85.36 39 84 39 C84 40.65 84 42.3 84 44 C82.35 44 80.7 44 79 44 C79 45.32 79 46.64 79 48 C77.68 48 76.36 48 75 48 C75 55.59 75 63.18 75 71 C73.68 71 72.36 71 71 71 C71 72.32 71 73.64 71 75 C69.35 75 67.7 75 66 75 C66 76.32 66 77.64 66 79 C64.68 79 63.36 79 62 79 C62 80.65 62 82.3 62 84 C54.74 84 47.48 84 40 84 C40 82.35 40 80.7 40 79 C38.68 79 37.36 79 36 79 C36 77.68 36 76.36 36 75 C34.35 75 32.7 75 31 75 C31 73.68 31 72.36 31 71 C29.68 71 28.36 71 27 71 C27 67.7 27 64.4 27 61 C25.68 61 24.36 61 23 61 C23 54.07 23 47.14 23 40 C21.35 40 19.7 40 18 40 C18 37.03 18 34.06 18 31 C16.68 31 15.36 31 14 31 C14 29.35 14 27.7 14 26 C12.35 26 10.7 26 9 26 C9 24.68 9 23.36 9 22 C4.71 22 0.42 22 -4 22 C-4 19.03 -4 16.06 -4 13 C-1.03 13 1.94 13 5 13 C5 11.68 5 10.36 5 9 C2.03 9 -0.94 9 -4 9 C-4 7.68 -4 6.36 -4 5 C-2.68 5 -1.36 5 0 5 C0 3.35 0 1.7 0 0 Z " fill="#FBEADE" transform="translate(29,51)"/>
<path d="M0 0 C11.88 0 23.76 0 36 0 C36 0.99 36 1.98 36 3 C38.97 3 41.94 3 45 3 C44.67 4.65 44.34 6.3 44 8 C41.03 8 38.06 8 35 8 C35 7.01 35 6.02 35 5 C23.78 5 12.56 5 1 5 C1 6.32 1 7.64 1 9 C-1.97 9 -4.94 9 -8 9 C-8 10.32 -8 11.64 -8 13 C-10.97 13 -13.94 13 -17 13 C-17 14.65 -17 16.3 -17 18 C-18.32 18 -19.64 18 -21 18 C-21 19.32 -21 20.64 -21 22 C-22.65 22 -24.3 22 -26 22 C-26 24.97 -26 27.94 -26 31 C-27.32 31 -28.64 31 -30 31 C-30 36.61 -30 42.22 -30 48 C-31.65 48 -33.3 48 -35 48 C-35 49.65 -35 51.3 -35 53 C-36.32 53 -37.64 53 -39 53 C-39 54.32 -39 55.64 -39 57 C-36.03 57 -33.06 57 -30 57 C-30 58.32 -30 59.64 -30 61 C-32.97 61 -35.94 61 -39 61 C-39 63.97 -39 66.94 -39 70 C-34.71 70 -30.42 70 -26 70 C-26 71.32 -26 72.64 -26 74 C-24.35 74 -22.7 74 -21 74 C-21 75.65 -21 77.3 -21 79 C-19.68 79 -18.36 79 -17 79 C-17 81.97 -17 84.94 -17 88 C-18.65 88 -20.3 88 -22 88 C-22 85.03 -22 82.06 -22 79 C-23.32 79 -24.64 79 -26 79 C-26 77.68 -26 76.36 -26 75 C-28.64 75 -31.28 75 -34 75 C-34 80.61 -34 86.22 -34 92 C-32.68 92 -31.36 92 -30 92 C-30 93.32 -30 94.64 -30 96 C-28.68 96 -27.36 96 -26 96 C-26 97.65 -26 99.3 -26 101 C-27.32 101 -28.64 101 -30 101 C-30 116.84 -30 132.68 -30 149 C-28.68 149 -27.36 149 -26 149 C-26 151.97 -26 154.94 -26 158 C-24.35 158 -22.7 158 -21 158 C-21 160.97 -21 163.94 -21 167 C-18.03 167 -15.06 167 -12 167 C-12 168.32 -12 169.64 -12 171 C6.48 171 24.96 171 44 171 C44 169.68 44 168.36 44 167 C46.97 167 49.94 167 53 167 C53 165.35 53 163.7 53 162 C54.65 162 56.3 162 58 162 C58 155.07 58 148.14 58 141 C58.66 141 59.32 141 60 141 C60 140.34 60 139.68 60 139 C60.99 139.33 61.98 139.66 63 140 C63 145.61 63 151.22 63 157 C65.64 157 68.28 157 71 157 C71.33 158.32 71.66 159.64 72 161 C73.32 161.33 74.64 161.66 76 162 C76 164.97 76 167.94 76 171 C74.68 171.33 73.36 171.66 72 172 C71.67 173.65 71.34 175.3 71 177 C63.74 177 56.48 177 49 177 C48.505 174.525 48.505 174.525 48 172 C47.34 172 46.68 172 46 172 C45.67 173.65 45.34 175.3 45 177 C25.86 177 6.72 177 -13 177 C-13.33 175.68 -13.66 174.36 -14 173 C-14.66 173 -15.32 173 -16 173 C-16.33 174.32 -16.66 175.64 -17 177 C-24.26 177 -31.52 177 -39 177 C-39.33 175.35 -39.66 173.7 -40 172 C-41.65 171.67 -43.3 171.34 -45 171 C-45 168.03 -45 165.06 -45 162 C-43.35 161.67 -41.7 161.34 -40 161 C-39.505 159.02 -39.505 159.02 -39 157 C-36.36 157 -33.72 157 -31 157 C-31 154.69 -31 152.38 -31 150 C-32.65 149.67 -34.3 149.34 -36 149 C-36 133.16 -36 117.32 -36 101 C-33.525 100.505 -33.525 100.505 -31 100 C-31 99.34 -31 98.68 -31 98 C-32.65 97.67 -34.3 97.34 -36 97 C-36 95.68 -36 94.36 -36 93 C-37.32 92.67 -38.64 92.34 -40 92 C-40 86.72 -40 81.44 -40 76 C-42.64 76 -45.28 76 -48 76 C-49 75 -49 75 -49.0625 72.4375 C-49.041875 71.633125 -49.02125 70.82875 -49 70 C-47.02 69.505 -47.02 69.505 -45 69 C-45 66.36 -45 63.72 -45 61 C-42.525 60.505 -42.525 60.505 -40 60 C-40 59.34 -40 58.68 -40 58 C-41.28197266 58.01740234 -41.28197266 58.01740234 -42.58984375 58.03515625 C-43.69457031 58.04417969 -44.79929687 58.05320313 -45.9375 58.0625 C-47.03964844 58.07410156 -48.14179687 58.08570313 -49.27734375 58.09765625 C-52 58 -52 58 -53 57 C-53.125 54.5 -53.125 54.5 -53 52 C-52 51 -52 51 -49.27734375 50.90234375 C-48.17519531 50.91394531 -47.07304688 50.92554688 -45.9375 50.9375 C-44.28041016 50.95103516 -44.28041016 50.95103516 -42.58984375 50.96484375 C-41.73519531 50.97644531 -40.88054688 50.98804688 -40 51 C-39.67 49.68 -39.34 48.36 -39 47 C-38.01 47 -37.02 47 -36 47 C-36 42.05 -36 37.1 -36 32 C-37.32 31.67 -38.64 31.34 -40 31 C-40 26.38 -40 21.76 -40 17 C-38.68 16.67 -37.36 16.34 -36 16 C-35.67 14.68 -35.34 13.36 -35 12 C-33.68 12 -32.36 12 -31 12 C-30.67 10.68 -30.34 9.36 -30 8 C-27.03 8 -24.06 8 -21 8 C-20.505 9.98 -20.505 9.98 -20 12 C-19.34 12 -18.68 12 -18 12 C-17.67 10.35 -17.34 8.7 -17 7 C-14.36 7 -11.72 7 -9 7 C-8.67 5.68 -8.34 4.36 -8 3 C-6.865625 2.87625 -5.73125 2.7525 -4.5625 2.625 C-3.386875 2.41875 -2.21125 2.2125 -1 2 C-0.67 1.34 -0.34 0.68 0 0 Z " fill="#807973" transform="translate(64,3)"/>
<path d="M0 0 C0.99 0.33 1.98 0.66 3 1 C3 6.61 3 12.22 3 18 C5.64 18 8.28 18 11 18 C11.495 19.98 11.495 19.98 12 22 C13.98 22.495 13.98 22.495 16 23 C16 25.97 16 28.94 16 32 C14.68 32.33 13.36 32.66 12 33 C11.67 34.65 11.34 36.3 11 38 C3.74 38 -3.52 38 -11 38 C-11.33 36.35 -11.66 34.7 -12 33 C-12.66 33 -13.32 33 -14 33 C-14.33 34.65 -14.66 36.3 -15 38 C-34.14 38 -53.28 38 -73 38 C-73.33 36.68 -73.66 35.36 -74 34 C-74.66 34 -75.32 34 -76 34 C-76.33 35.32 -76.66 36.64 -77 38 C-84.26 38 -91.52 38 -99 38 C-99.33 36.35 -99.66 34.7 -100 33 C-101.65 32.67 -103.3 32.34 -105 32 C-105 29.03 -105 26.06 -105 23 C-103.68 22.67 -102.36 22.34 -101 22 C-101 22.66 -101 23.32 -101 24 C-100.34 24 -99.68 24 -99 24 C-99 26.64 -99 29.28 -99 32 C-93.39 32 -87.78 32 -82 32 C-82 30.68 -82 29.36 -82 28 C-83.32 28 -84.64 28 -86 28 C-86 25.03 -86 22.06 -86 19 C-84.35 19 -82.7 19 -81 19 C-81 21.97 -81 24.94 -81 28 C-78.03 28 -75.06 28 -72 28 C-72 29.32 -72 30.64 -72 32 C-53.52 32 -35.04 32 -16 32 C-16 30.68 -16 29.36 -16 28 C-13.03 28 -10.06 28 -7 28 C-7 26.35 -7 24.7 -7 23 C-5.35 23 -3.7 23 -2 23 C-2 16.07 -2 9.14 -2 2 C-1.34 2 -0.68 2 0 2 C0 1.34 0 0.68 0 0 Z " fill="#0E1212" transform="translate(124,142)"/>
<path d="M0 0 C4.62 0 9.24 0 14 0 C14 1.65 14 3.3 14 5 C15.32 5 16.64 5 18 5 C18 7.97 18 10.94 18 14 C16.35 14 14.7 14 13 14 C13 11.03 13 8.06 13 5 C11.68 5 10.36 5 9 5 C9 3.68 9 2.36 9 1 C6.36 1 3.72 1 1 1 C1 6.61 1 12.22 1 18 C2.32 18 3.64 18 5 18 C5 19.32 5 20.64 5 22 C6.32 22 7.64 22 9 22 C9 23.65 9 25.3 9 27 C7.68 27 6.36 27 5 27 C5 42.84 5 58.68 5 75 C6.32 75 7.64 75 9 75 C9 80.94 9 86.88 9 93 C10.32 93 11.64 93 13 93 C13 94.32 13 95.64 13 97 C7.39 97 1.78 97 -4 97 C-4 94.36 -4 91.72 -4 89 C-4.66 89 -5.32 89 -6 89 C-5.34 87.02 -4.68 85.04 -4 83 C-1.36 83 1.28 83 4 83 C4 80.69 4 78.38 4 76 C2.35 75.67 0.7 75.34 -1 75 C-1 59.16 -1 43.32 -1 27 C0.65 26.67 2.3 26.34 4 26 C4 25.34 4 24.68 4 24 C2.35 23.67 0.7 23.34 -1 23 C-1.33 21.35 -1.66 19.7 -2 18 C-1.34 18 -0.68 18 0 18 C0 12.06 0 6.12 0 0 Z " fill="#191919" transform="translate(29,77)"/>
<path d="M0 0 C6.93 0 13.86 0 21 0 C21.33 1.65 21.66 3.3 22 5 C23.32 5 24.64 5 26 5 C26 6.32 26 7.64 26 9 C27.32 9 28.64 9 30 9 C30 12.96 30 16.92 30 21 C18.45 21 6.9 21 -5 21 C-5 15.72 -5 10.44 -5 5 C-3.35 5 -1.7 5 0 5 C0 3.35 0 1.7 0 0 Z " fill="#BA8875" transform="translate(65,152)"/>
<path d="M0 0 C0.99 0.33 1.98 0.66 3 1 C3 6.61 3 12.22 3 18 C5.64 18 8.28 18 11 18 C11.33 19.32 11.66 20.64 12 22 C13.32 22.33 14.64 22.66 16 23 C16 25.97 16 28.94 16 32 C14.02 32.495 14.02 32.495 12 33 C11.67 34.65 11.34 36.3 11 38 C3.74 38 -3.52 38 -11 38 C-11.66 36.35 -12.32 34.7 -13 33 C-13.66 32.67 -14.32 32.34 -15 32 C-15.33 30.68 -15.66 29.36 -16 28 C-13.03 28 -10.06 28 -7 28 C-7 26.35 -7 24.7 -7 23 C-5.35 23 -3.7 23 -2 23 C-2 16.07 -2 9.14 -2 2 C-1.34 2 -0.68 2 0 2 C0 1.34 0 0.68 0 0 Z " fill="#060E0E" transform="translate(124,142)"/>
<path d="M0 0 C0.99 0 1.98 0 3 0 C3 5.61 3 11.22 3 17 C1.68 17 0.36 17 -1 17 C-1 18.65 -1 20.3 -1 22 C-2.32 22 -3.64 22 -5 22 C-5 23.32 -5 24.64 -5 26 C-2.03 26 0.94 26 4 26 C4 27.32 4 28.64 4 30 C1.03 30 -1.94 30 -5 30 C-5 32.97 -5 35.94 -5 39 C-0.71 39 3.58 39 8 39 C8 40.32 8 41.64 8 43 C5.03 43 2.06 43 -1 43 C-1 48.94 -1 54.88 -1 61 C-2.98 61.495 -2.98 61.495 -5 62 C-6 61 -6 61 -6.09765625 57.40234375 C-6.0909822 55.91403133 -6.07902183 54.42573568 -6.0625 52.9375 C-6.05798828 52.17888672 -6.05347656 51.42027344 -6.04882812 50.63867188 C-6.0370068 48.75908129 -6.01907078 46.87953101 -6 45 C-7.299375 45.020625 -8.59875 45.04125 -9.9375 45.0625 C-11.29165633 45.08399454 -12.64756083 45.07148199 -14 45 C-15 44 -15 44 -15.0625 41.4375 C-15.041875 40.633125 -15.02125 39.82875 -15 39 C-13.02 38.505 -13.02 38.505 -11 38 C-11 35.36 -11 32.72 -11 30 C-9.35 29.67 -7.7 29.34 -6 29 C-6 28.34 -6 27.68 -6 27 C-6.85464844 27.01160156 -7.70929687 27.02320312 -8.58984375 27.03515625 C-9.69457031 27.04417969 -10.79929687 27.05320312 -11.9375 27.0625 C-13.03964844 27.07410156 -14.14179688 27.08570312 -15.27734375 27.09765625 C-18 27 -18 27 -19 26 C-19.125 23.5 -19.125 23.5 -19 21 C-18 20 -18 20 -15.27734375 19.90234375 C-14.17519531 19.91394531 -13.07304687 19.92554687 -11.9375 19.9375 C-10.28041016 19.95103516 -10.28041016 19.95103516 -8.58984375 19.96484375 C-7.73519531 19.97644531 -6.88054688 19.98804687 -6 20 C-5.67 18.68 -5.34 17.36 -5 16 C-4.01 16 -3.02 16 -2 16 C-2.02320312 15.18015625 -2.04640625 14.3603125 -2.0703125 13.515625 C-2.09738281 11.89914063 -2.09738281 11.89914063 -2.125 10.25 C-2.14820312 9.18265625 -2.17140625 8.1153125 -2.1953125 7.015625 C-2.00487687 4.07529894 -1.52670104 2.47638122 0 0 Z " fill="#0F1415" transform="translate(30,34)"/>
<path d="M0 0 C0 1.32 0 2.64 0 4 C1.65 4.33 3.3 4.66 5 5 C5 5.99 5 6.98 5 8 C6.32 8.33 7.64 8.66 9 9 C9 10.32 9 11.64 9 13 C12.96 13 16.92 13 21 13 C21.33 14.32 21.66 15.64 22 17 C23.65 17.33 25.3 17.66 27 18 C27 22.29 27 26.58 27 31 C24.525 31.495 24.525 31.495 22 32 C22.12568359 33.19882813 22.12568359 33.19882813 22.25390625 34.421875 C22.96612885 42.10306052 22.89703732 49.34068135 22 57 C19.525 57.495 19.525 57.495 17 58 C17 49.09 17 40.18 17 31 C18.32 31 19.64 31 21 31 C21 26.71 21 22.42 21 18 C18.03 18 15.06 18 12 18 C12 19.32 12 20.64 12 22 C10.68 22 9.36 22 8 22 C8 19.36 8 16.72 8 14 C6.68 14 5.36 14 4 14 C4 12.35 4 10.7 4 9 C2.35 9 0.7 9 -1 9 C-1 7.68 -1 6.36 -1 5 C-3.64 5 -6.28 5 -9 5 C-9 3.68 -9 2.36 -9 1 C-5.64919071 -1.10976881 -3.77897651 -1.0497157 0 0 Z " fill="#1C1C1A" transform="translate(118,11)"/>
<path d="M0 0 C2.475 0.495 2.475 0.495 5 1 C5 2.32 5 3.64 5 5 C7.64 5 10.28 5 13 5 C13.38218767 6.65614657 13.71395102 8.32457024 14 10 C13 11 13 11 11.15234375 11.09765625 C9.1015625 11.06510417 7.05078125 11.03255208 5 11 C5 13.64 5 16.28 5 19 C3.68 19.33 2.36 19.66 1 20 C1 22.64 1 25.28 1 28 C-0.65 27.67 -2.3 27.34 -4 27 C-4 24.36 -4 21.72 -4 19 C-8.29 19 -12.58 19 -17 19 C-17 17.35 -17 15.7 -17 14 C-11.39 14 -5.78 14 0 14 C0 12.68 0 11.36 0 10 C-2.97 10 -5.94 10 -9 10 C-9 8.35 -9 6.7 -9 5 C-6.03 5 -3.06 5 0 5 C0 3.35 0 1.7 0 0 Z " fill="#0F110F" transform="translate(135,72)"/>
<path d="M0 0 C18.48 0 36.96 0 56 0 C56.495 2.475 56.495 2.475 57 5 C37.86 5 18.72 5 -1 5 C-0.67 3.35 -0.34 1.7 0 0 Z " fill="#000000" transform="translate(52,175)"/>
<path d="M0 0 C4.29 0.33 8.58 0.66 13 1 C13 2.32 13 3.64 13 5 C11.68 5 10.36 5 9 5 C9 9.62 9 14.24 9 19 C7.68 19 6.36 19 5 19 C5 24.61 5 30.22 5 36 C4.67 36 4.34 36 4 36 C4 30.39 4 24.78 4 19 C3.01 19 2.02 19 1 19 C0.34 20.32 -0.32 21.64 -1 23 C-1 22.01 -1 21.02 -1 20 C-2.32 19.67 -3.64 19.34 -5 19 C-5 14.38 -5 9.76 -5 5 C-3.68 4.67 -2.36 4.34 -1 4 C-0.67 2.68 -0.34 1.36 0 0 Z " fill="#4B4440" transform="translate(29,15)"/>
<path d="M0 0 C1.65 0 3.3 0 5 0 C5 1.32 5 2.64 5 4 C9.29 4 13.58 4 18 4 C18 5.32 18 6.64 18 8 C20.64 8 23.28 8 26 8 C26 6.68 26 5.36 26 4 C27.65 4 29.3 4 31 4 C31 5.65 31 7.3 31 9 C29.68 9 28.36 9 27 9 C27 10.32 27 11.64 27 13 C24.03 13 21.06 13 18 13 C18 14.65 18 16.3 18 18 C15.03 18 12.06 18 9 18 C9 16.35 9 14.7 9 13 C7.35 13 5.7 13 4 13 C4 10.36 4 7.72 4 5 C2.68 5 1.36 5 0 5 C0 3.35 0 1.7 0 0 Z " fill="#514A44" transform="translate(60,60)"/>
<path d="M0 0 C1.32 0 2.64 0 4 0 C5.61949011 2.57213134 6.04408751 3.67669159 5.625 6.75 C5.41875 7.4925 5.2125 8.235 5 9 C3.68 9 2.36 9 1 9 C0.67 10.65 0.34 12.3 0 14 C-0.99 14 -1.98 14 -3 14 C-2.99476318 14.84296631 -2.98952637 15.68593262 -2.98413086 16.55444336 C-2.96712174 19.67227936 -2.95456594 22.79009177 -2.94506836 25.90795898 C-2.94002943 27.25920386 -2.93319823 28.61044326 -2.92456055 29.96166992 C-2.91247581 31.90020434 -2.90730172 33.838778 -2.90234375 35.77734375 C-2.89710693 36.94515381 -2.89187012 38.11296387 -2.88647461 39.31616211 C-3 42 -3 42 -4 43 C-5.65 43 -7.3 43 -9 43 C-9 32.77 -9 22.54 -9 12 C-7.68 12 -6.36 12 -5 12 C-5 10.68 -5 9.36 -5 8 C-3.35 8 -1.7 8 0 8 C0 5.36 0 2.72 0 0 Z " fill="#020000" transform="translate(126,100)"/>
<path d="M0 0 C4.29 0 8.58 0 13 0 C13 1.32 13 2.64 13 4 C18.94 4 24.88 4 31 4 C31 5.65 31 7.3 31 9 C29.35 9 27.7 9 26 9 C26 10.32 26 11.64 26 13 C20.39 13 14.78 13 9 13 C9 11.35 9 9.7 9 8 C7.68 8 6.36 8 5 8 C5 6.68 5 5.36 5 4 C3.35 3.67 1.7 3.34 0 3 C0 2.01 0 1.02 0 0 Z " fill="#FBD6C8" transform="translate(60,91)"/>
<path d="M0 0 C4.29 0 8.58 0 13 0 C13 1.32 13 2.64 13 4 C10.03 4 7.06 4 4 4 C4 5.65 4 7.3 4 9 C7.3 9 10.6 9 14 9 C14 7.68 14 6.36 14 5 C14.99 5 15.98 5 17 5 C17 6.32 17 7.64 17 9 C18.65 9 20.3 9 22 9 C22 10.32 22 11.64 22 13 C20.35 13 18.7 13 17 13 C17 14.32 17 15.64 17 17 C14.36 17 11.72 17 9 17 C9 15.68 9 14.36 9 13 C4.71 13 0.42 13 -4 13 C-4 10.03 -4 7.06 -4 4 C-2.68 4 -1.36 4 0 4 C0 2.68 0 1.36 0 0 Z " fill="#FCEDE1" transform="translate(69,51)"/>
<path d="M0 0 C4.62 0 9.24 0 14 0 C14 1.32 14 2.64 14 4 C15.32 4 16.64 4 18 4 C18 6.97 18 9.94 18 13 C15.36 13 12.72 13 10 13 C10 14.65 10 16.3 10 18 C8.35 18 6.7 18 5 18 C5 15.03 5 12.06 5 9 C2.03 9 -0.94 9 -4 9 C-4 7.68 -4 6.36 -4 5 C-2.68 5 -1.36 5 0 5 C0 3.35 0 1.7 0 0 Z " fill="#E6CAB2" transform="translate(29,51)"/>
<path d="M0 0 C1.60407328 -0.02708567 3.2082785 -0.04643483 4.8125 -0.0625 C5.70582031 -0.07410156 6.59914063 -0.08570313 7.51953125 -0.09765625 C10 0 10 0 13 1 C13 3.97 13 6.94 13 10 C14.32 10 15.64 10 17 10 C17 11.32 17 12.64 17 14 C11.39 14 5.78 14 0 14 C0 11.36 0 8.72 0 6 C-0.66 6 -1.32 6 -2 6 C-1.34 4.02 -0.68 2.04 0 0 Z " fill="#B09384" transform="translate(25,160)"/>
<path d="M0 0 C5.625 -0.25 5.625 -0.25 9 2 C9 3.32 9 4.64 9 6 C6.03 6 3.06 6 0 6 C0 7.65 0 9.3 0 11 C-1.32 11 -2.64 11 -4 11 C-4 12.32 -4 13.64 -4 15 C-5.65 15 -7.3 15 -9 15 C-9 13.35 -9 11.7 -9 10 C-7.68 10 -6.36 10 -5 10 C-5 8.68 -5 7.36 -5 6 C-7.64 6 -10.28 6 -13 6 C-13.5625 4.0625 -13.5625 4.0625 -14 2 C-13 1 -13 1 -10.93359375 0.90234375 C-9.69802734 0.91974609 -9.69802734 0.91974609 -8.4375 0.9375 C-7.61121094 0.94652344 -6.78492188 0.95554687 -5.93359375 0.96484375 C-5.29550781 0.97644531 -4.65742187 0.98804688 -4 1 C-3.67 2.32 -3.34 3.64 -3 5 C-2.34 5 -1.68 5 -1 5 C-0.67 3.35 -0.34 1.7 0 0 Z " fill="#423833" transform="translate(47,10)"/>
<path d="M0 0 C4.62 0 9.24 0 14 0 C14 1.65 14 3.3 14 5 C15.32 5 16.64 5 18 5 C18 7.97 18 10.94 18 14 C16.35 14 14.7 14 13 14 C13 11.03 13 8.06 13 5 C11.68 5 10.36 5 9 5 C9 3.68 9 2.36 9 1 C6.36 1 3.72 1 1 1 C1 6.61 1 12.22 1 18 C2.32 18 3.64 18 5 18 C5 19.32 5 20.64 5 22 C6.32 22 7.64 22 9 22 C9 23.65 9 25.3 9 27 C7.35 27 5.7 27 4 27 C4 26.01 4 25.02 4 24 C2.35 23.67 0.7 23.34 -1 23 C-1.33 21.35 -1.66 19.7 -2 18 C-1.34 18 -0.68 18 0 18 C0 12.06 0 6.12 0 0 Z " fill="#463934" transform="translate(29,77)"/>
<path d="M0 0 C0.99 0.33 1.98 0.66 3 1 C3 6.61 3 12.22 3 18 C5.64 18 8.28 18 11 18 C11.33 18.99 11.66 19.98 12 21 C11.67 21.66 11.34 22.32 11 23 C6.71 23 2.42 23 -2 23 C-2 16.07 -2 9.14 -2 2 C-1.34 2 -0.68 2 0 2 C0 1.34 0 0.68 0 0 Z " fill="#030406" transform="translate(124,142)"/>
<path d="M0 0 C11.88 0 23.76 0 36 0 C35.67 1.32 35.34 2.64 35 4 C23.78 4 12.56 4 1 4 C0.67 2.68 0.34 1.36 0 0 Z " fill="#030302" transform="translate(64,3)"/>
<path d="M0 0 C1.32 0 2.64 0 4 0 C6.08651138 5.86930873 6.09422975 10.76712881 5.625 16.9375 C5.56828125 17.81212891 5.5115625 18.68675781 5.453125 19.58789062 C5.31292119 21.72599869 5.15797033 23.86313113 5 26 C3.35 26.33 1.7 26.66 0 27 C0 18.09 0 9.18 0 0 Z " fill="#050404" transform="translate(135,42)"/>
<path d="M0 0 C5.94 0 11.88 0 18 0 C18 1.65 18 3.3 18 5 C16.35 5 14.7 5 13 5 C13 6.32 13 7.64 13 9 C10.03 9 7.06 9 4 9 C4 7.68 4 6.36 4 5 C2.68 5 1.36 5 0 5 C0 3.35 0 1.7 0 0 Z " fill="#F1C8A5" transform="translate(104,73)"/>
<path d="M0 0 C4.29 0 8.58 0 13 0 C13 2.64 13 5.28 13 8 C7.39 8 1.78 8 -4 8 C-4 6.68 -4 5.36 -4 4 C-2.68 4 -1.36 4 0 4 C0 2.68 0 1.36 0 0 Z " fill="#C39A89" transform="translate(122,166)"/>
<path d="M0 0 C1.32 0 2.64 0 4 0 C5.61949011 2.57213134 6.04408751 3.67669159 5.625 6.75 C5.41875 7.4925 5.2125 8.235 5 9 C3.68 9 2.36 9 1 9 C0.67 10.65 0.34 12.3 0 14 C-0.99 14 -1.98 14 -3 14 C-3.33 14.99 -3.66 15.98 -4 17 C-4.33 15.68 -4.66 14.36 -5 13 C-5.99 13 -6.98 13 -8 13 C-8 22.9 -8 32.8 -8 43 C-8.33 43 -8.66 43 -9 43 C-9 32.77 -9 22.54 -9 12 C-7.68 12 -6.36 12 -5 12 C-5 10.68 -5 9.36 -5 8 C-3.35 8 -1.7 8 0 8 C0 5.36 0 2.72 0 0 Z " fill="#383A39" transform="translate(126,100)"/>
<path d="M0 0 C1.65 0.66 3.3 1.32 5 2 C5 4.97 5 7.94 5 11 C3.68 11.33 2.36 11.66 1 12 C0.67 12.66 0.34 13.32 0 14 C0 13.34 0 12.68 0 12 C-5.94 12 -11.88 12 -18 12 C-18 8.7 -18 5.4 -18 2 C-12.06 2 -6.12 2 0 2 C0 1.34 0 0.68 0 0 Z M-13 3 C-13 4.32 -13 5.64 -13 7 C-14.32 7 -15.64 7 -17 7 C-17 8.32 -17 9.64 -17 11 C-11.39 11 -5.78 11 0 11 C0 8.36 0 5.72 0 3 C-4.29 3 -8.58 3 -13 3 Z " fill="#433630" transform="translate(135,163)"/>
<path d="M0 0 C1.65 0 3.3 0 5 0 C5 1.65 5 3.3 5 5 C6.32 5 7.64 5 9 5 C9 7.97 9 10.94 9 14 C6.03 14 3.06 14 0 14 C0 9.38 0 4.76 0 0 Z " fill="#191412" transform="translate(95,55)"/>
<path d="M0 0 C1.98 0 3.96 0 6 0 C6 1.32 6 2.64 6 4 C7.65 4 9.3 4 11 4 C11 5.32 11 6.64 11 8 C8.36 8 5.72 8 3 8 C3 9.65 3 11.3 3 13 C1.35 13 -0.3 13 -2 13 C-2.16682272 8.07872966 -2.24828052 4.49656104 0 0 Z " fill="#F2C49D" transform="translate(36,56)"/>
<path d="M0 0 C1.32 0 2.64 0 4 0 C4 1.32 4 2.64 4 4 C5.65 4 7.3 4 9 4 C9 6.97 9 9.94 9 13 C6.03 13 3.06 13 0 13 C0 8.71 0 4.42 0 0 Z " fill="#0F0A08" transform="translate(47,47)"/>
<path d="M0 0 C2.97 0 5.94 0 9 0 C9.103125 0.78375 9.20625 1.5675 9.3125 2.375 C9.77595022 5.33045181 9.77595022 5.33045181 13 7 C12.67 7.66 12.34 8.32 12 9 C8.04 9 4.08 9 0 9 C0 6.03 0 3.06 0 0 Z " fill="#EFE4DB" transform="translate(25,64)"/>
<path d="M0 0 C2.64 0 5.28 0 8 0 C8 1.32 8 2.64 8 4 C6.68 4 5.36 4 4 4 C4 5.65 4 7.3 4 9 C2.35 9 0.7 9 -1 9 C-1 11.64 -1 14.28 -1 17 C-1.99 17 -2.98 17 -4 17 C-4 13.04 -4 9.08 -4 5 C-2.68 5 -1.36 5 0 5 C0 3.35 0 1.7 0 0 Z " fill="#C19A8B" transform="translate(34,16)"/>
<path d="M0 0 C1.65 0 3.3 0 5 0 C6 1 6 1 6.09765625 3.94140625 C6.08605469 5.13636719 6.07445312 6.33132812 6.0625 7.5625 C6.05347656 8.76003906 6.04445312 9.95757812 6.03515625 11.19140625 C6.02355469 12.11824219 6.01195312 13.04507813 6 14 C4.02 14.66 2.04 15.32 0 16 C0 10.72 0 5.44 0 0 Z " fill="#1B1E1E" transform="translate(139,28)"/>
<path d="M0 0 C1.50433594 0.01353516 1.50433594 0.01353516 3.0390625 0.02734375 C3.80992187 0.03894531 4.58078125 0.05054687 5.375 0.0625 C5.9375 2 5.9375 2 6.375 4.0625 C5.375 5.0625 5.375 5.0625 3.30859375 5.16015625 C2.48488281 5.14855469 1.66117188 5.13695312 0.8125 5.125 C-0.01378906 5.11597656 -0.84007812 5.10695313 -1.69140625 5.09765625 C-2.32949219 5.08605469 -2.96757812 5.07445312 -3.625 5.0625 C-3.625 6.3825 -3.625 7.7025 -3.625 9.0625 C-4.945 9.0625 -6.265 9.0625 -7.625 9.0625 C-7.625 6.4225 -7.625 3.7825 -7.625 1.0625 C-4.98041621 -0.25979189 -2.94738699 -0.03427194 0 0 Z " fill="#080403" transform="translate(133.625,23.9375)"/>
<path d="M0 0 C2.97 0 5.94 0 9 0 C9 2.97 9 5.94 9 9 C6.03 9 3.06 9 0 9 C0 6.03 0 3.06 0 0 Z " fill="#B09F9D" transform="translate(69,69)"/>
<path d="M0 0 C0.495 1.485 0.495 1.485 1 3 C1.66 3.33 2.32 3.66 3 4 C2.34 5.32 1.68 6.64 1 8 C0.505 6.02 0.505 6.02 0 4 C-18.48 4 -36.96 4 -56 4 C-56.66 5.32 -57.32 6.64 -58 8 C-58 7.01 -58 6.02 -58 5 C-58.66 4.67 -59.32 4.34 -60 4 C-56.67915144 2.00477661 -54.25015319 1.7781497 -50.40527344 1.86474609 C-49.28441345 1.88491791 -48.16355347 1.90508972 -47.00872803 1.9258728 C-45.80444153 1.95806915 -44.60015503 1.9902655 -43.359375 2.0234375 C-42.12205627 2.04846344 -40.88473755 2.07348938 -39.60992432 2.09927368 C-36.32834564 2.16750073 -33.04713884 2.24469022 -29.76586914 2.32623291 C-26.41437959 2.40731079 -23.06266713 2.47641576 -19.7109375 2.546875 C-13.14034817 2.68705131 -6.57011144 2.83904746 0 3 C0 2.01 0 1.02 0 0 Z " fill="#343E3E" transform="translate(108,171)"/>
<path d="M0 0 C1.32 0.33 2.64 0.66 4 1 C3.67 1.66 3.34 2.32 3 3 C2.8541694 4.44868759 2.76383334 5.9031775 2.70288086 7.35791016 C2.66291489 8.25869293 2.62294891 9.15947571 2.58177185 10.08755493 C2.54318558 11.06155243 2.5045993 12.03554993 2.46484375 13.0390625 C2.42186661 14.03505463 2.37888947 15.03104675 2.33460999 16.05722046 C2.19798267 19.24631614 2.06767327 22.43563498 1.9375 25.625 C1.84611833 27.78387178 1.75432674 29.94272625 1.66210938 32.1015625 C1.43664482 37.4008498 1.21637035 42.70033402 1 48 C0.67 48 0.34 48 0 48 C0 32.16 0 16.32 0 0 Z " fill="#C2A192" transform="translate(34,104)"/>
<path d="M0 0 C0.99 0 1.98 0 3 0 C3 5.61 3 11.22 3 17 C1.68 16.67 0.36 16.34 -1 16 C-2.22485812 13.55028376 -2.16722808 11.85765539 -2.1875 9.125 C-2.20167969 8.26132812 -2.21585938 7.39765625 -2.23046875 6.5078125 C-1.98859252 3.8758712 -1.32983541 2.26019456 0 0 Z " fill="#010101" transform="translate(30,34)"/>
<path d="M0 0 C1.65 0 3.3 0 5 0 C5 1.65 5 3.3 5 5 C3.68 5 2.36 5 1 5 C1 6.32 1 7.64 1 9 C-1.97 9 -4.94 9 -8 9 C-8 7.35 -8 5.7 -8 4 C-5.36 4 -2.72 4 0 4 C0 2.68 0 1.36 0 0 Z " fill="#59544E" transform="translate(86,64)"/>
<path d="M0 0 C2.475 0.495 2.475 0.495 5 1 C5 4.96 5 8.92 5 13 C3.35 13.33 1.7 13.66 0 14 C0 9.38 0 4.76 0 0 Z " fill="#010304" transform="translate(24,20)"/>
<path d="M0 0 C3.22290201 0.0289309 5.44294723 0.35779815 8.1875 2.1875 C8.1875 3.1775 8.1875 4.1675 8.1875 5.1875 C5.17259443 6.19246852 3.14568308 6.29085303 0 6.25 C-1.35158203 6.23646484 -1.35158203 6.23646484 -2.73046875 6.22265625 C-3.41753906 6.21105469 -4.10460938 6.19945312 -4.8125 6.1875 C-4.855221 4.52138095 -4.85313832 2.85367115 -4.8125 1.1875 C-3.8125 0.1875 -3.8125 0.1875 0 0 Z " fill="#020506" transform="translate(15.8125,53.8125)"/>
<path d="M0 0 C0 1.32 0 2.64 0 4 C1.32 4 2.64 4 4 4 C4 5.65 4 7.3 4 9 C2.35 9 0.7 9 -1 9 C-1 8.01 -1 7.02 -1 6 C-2.65 5.67 -4.3 5.34 -6 5 C-6.33 3.35 -6.66 1.7 -7 0 C-4.3333581 -1.33332095 -2.83319697 -0.67102033 0 0 Z " fill="#4A3C36" transform="translate(34,95)"/>
<path d="M0 0 C0.99 0 1.98 0 3 0 C3 0.66 3 1.32 3 2 C3.66 2 4.32 2 5 2 C5 4.64 5 7.28 5 10 C3.34385343 10.38218767 1.67542976 10.71395102 0 11 C-1 10 -1 10 -1.1328125 7.96875 C-1.13023438 7.1540625 -1.12765625 6.339375 -1.125 5.5 C-1.12757812 4.6853125 -1.13015625 3.870625 -1.1328125 3.03125 C-1 1 -1 1 0 0 Z " fill="#080808" transform="translate(20,164)"/>
<path d="M0 0 C3.96 0 7.92 0 12 0 C12 0.99 12 1.98 12 3 C9.36 3 6.72 3 4 3 C4 4.65 4 6.3 4 8 C2.68 8 1.36 8 0 8 C0 5.36 0 2.72 0 0 Z " fill="#060303" transform="translate(65,65)"/>
<path d="M0 0 C3.125 0.1875 3.125 0.1875 6.125 2.1875 C6.125 3.5075 6.125 4.8275 6.125 6.1875 C3.155 6.1875 0.185 6.1875 -2.875 6.1875 C-3.25718767 4.53135343 -3.58895102 2.86292976 -3.875 1.1875 C-2.875 0.1875 -2.875 0.1875 0 0 Z " fill="#110D0B" transform="translate(49.875,9.8125)"/>
<path d="M0 0 C1.65 0 3.3 0 5 0 C5 1.65 5 3.3 5 5 C3.68 5 2.36 5 1 5 C1 6.32 1 7.64 1 9 C-0.65 9 -2.3 9 -4 9 C-4 7.35 -4 5.7 -4 4 C-2.68 4 -1.36 4 0 4 C0 2.68 0 1.36 0 0 Z " fill="#342B26" transform="translate(108,95)"/>
<path d="M0 0 C1.65 0 3.3 0 5 0 C5 3.96 5 7.92 5 12 C4.67 11.01 4.34 10.02 4 9 C2.68 9 1.36 9 0 9 C0 6.03 0 3.06 0 0 Z " fill="#432F27" transform="translate(38,161)"/>
<path d="M0 0 C3.96 0 7.92 0 12 0 C12 1.32 12 2.64 12 4 C8.04 4 4.08 4 0 4 C0 2.68 0 1.36 0 0 Z " fill="#FAE9DA" transform="translate(30,51)"/>
<path d="M0 0 C2.05078125 0.03255208 4.1015625 0.06510417 6.15234375 0.09765625 C6.48234375 1.74765625 6.81234375 3.39765625 7.15234375 5.09765625 C4.18234375 5.09765625 1.21234375 5.09765625 -1.84765625 5.09765625 C-2.17765625 3.77765625 -2.50765625 2.45765625 -2.84765625 1.09765625 C-1.84765625 0.09765625 -1.84765625 0.09765625 0 0 Z " fill="#0C0D0E" transform="translate(26.84765625,159.90234375)"/>
<path d="M0 0 C1.32 0 2.64 0 4 0 C4 1.32 4 2.64 4 4 C1.36 4 -1.28 4 -4 4 C-4 5.65 -4 7.3 -4 9 C-5.65 9 -7.3 9 -9 9 C-9 6.36 -9 3.72 -9 1 C-8.67 1.66 -8.34 2.32 -8 3 C-4.37 3 -0.74 3 3 3 C3 2.34 3 1.68 3 1 C2.01 0.67 1.02 0.34 0 0 Z " fill="#EAC9AD" transform="translate(43,60)"/>
<path d="M0 0 C1.23556641 0.01740234 1.23556641 0.01740234 2.49609375 0.03515625 C3.32238281 0.04417969 4.14867187 0.05320312 5 0.0625 C5.63808594 0.07410156 6.27617188 0.08570313 6.93359375 0.09765625 C6.60359375 1.74765625 6.27359375 3.39765625 5.93359375 5.09765625 C3.29359375 5.09765625 0.65359375 5.09765625 -2.06640625 5.09765625 C-2.62890625 3.16015625 -2.62890625 3.16015625 -3.06640625 1.09765625 C-2.06640625 0.09765625 -2.06640625 0.09765625 0 0 Z " fill="#080806" transform="translate(36.06640625,10.90234375)"/>
<path d="M0 0 C-0.33 1.65 -0.66 3.3 -1 5 C-3.64 5 -6.28 5 -9 5 C-9 3.68 -9 2.36 -9 1 C-5.64919071 -1.10976881 -3.77897651 -1.0497157 0 0 Z " fill="#090706" transform="translate(118,11)"/>
<path d="M0 0 C0 2.97 0 5.94 0 9 C-0.99 9.33 -1.98 9.66 -3 10 C-3.66 9.67 -4.32 9.34 -5 9 C-5 6.36 -5 3.72 -5 1 C-3 0 -3 0 0 0 Z " fill="#010503" transform="translate(140,165)"/>
<path d="M0 0 C1.32 0 2.64 0 4 0 C5.61949011 2.57213134 6.04408751 3.67669159 5.625 6.75 C5.41875 7.4925 5.2125 8.235 5 9 C3.35 8.67 1.7 8.34 0 8 C0 5.36 0 2.72 0 0 Z " fill="#0A0602" transform="translate(126,100)"/>
<path d="M0 0 C1 3 1 3 1 5 C2.32 5 3.64 5 5 5 C5 5.99 5 6.98 5 8 C-1.15234375 8.09765625 -1.15234375 8.09765625 -3 8 C-4 7 -4 7 -4.0625 4.4375 C-4.041875 3.633125 -4.02125 2.82875 -4 2 C-2.68 1.34 -1.36 0.68 0 0 Z " fill="#283B3F" transform="translate(19,71)"/>
<path d="M0 0 C2.64 0 5.28 0 8 0 C7.67 1.65 7.34 3.3 7 5 C4.36 5 1.72 5 -1 5 C-0.67 3.35 -0.34 1.7 0 0 Z " fill="#05090A" transform="translate(101,6)"/>
<path d="M0 0 C0 2.97 0 5.94 0 9 C-1.65 8.67 -3.3 8.34 -5 8 C-5 5.69 -5 3.38 -5 1 C-3 0 -3 0 0 0 Z " fill="#0B0706" transform="translate(38,152)"/>
<path d="M0 0 C0.33 1.32 0.66 2.64 1 4 C2.32 4 3.64 4 5 4 C5 5.65 5 7.3 5 9 C3.35 9 1.7 9 0 9 C0 7.68 0 6.36 0 5 C-3.96 5 -7.92 5 -12 5 C-12 4.67 -12 4.34 -12 4 C-8.04 4 -4.08 4 0 4 C0 2.68 0 1.36 0 0 Z " fill="#F1D7C3" transform="translate(42,51)"/>
<path d="M0 0 C3.0625 0.125 3.0625 0.125 5.0625 1.125 C5.0625 2.445 5.0625 3.765 5.0625 5.125 C2.4225 5.125 -0.2175 5.125 -2.9375 5.125 C-3.5 3.1875 -3.5 3.1875 -3.9375 1.125 C-2.9375 0.125 -2.9375 0.125 0 0 Z " fill="#050809" transform="translate(58.9375,5.875)"/>
<path d="M0 0 C1.32 0 2.64 0 4 0 C4 2.97 4 5.94 4 9 C2.68 9 1.36 9 0 9 C0 6.03 0 3.06 0 0 Z " fill="#120B0B" transform="translate(43,82)"/>
<path d="M0 0 C1.32 0 2.64 0 4 0 C4 2.64 4 5.28 4 8 C2.68 8 1.36 8 0 8 C0 5.36 0 2.72 0 0 Z " fill="#060201" transform="translate(47,91)"/>
<path d="M0 0 C2.64 0 5.28 0 8 0 C8 1.32 8 2.64 8 4 C5.36 4 2.72 4 0 4 C0 2.68 0 1.36 0 0 Z " fill="#0C0606" transform="translate(69,73)"/>
<path d="M0 0 C2.64 0 5.28 0 8 0 C8 1.32 8 2.64 8 4 C5.36 4 2.72 4 0 4 C0 2.68 0 1.36 0 0 Z " fill="#030101" transform="translate(78,69)"/>
<path d="M0 0 C2.64 0 5.28 0 8 0 C8 1.32 8 2.64 8 4 C5.36 4 2.72 4 0 4 C0 2.68 0 1.36 0 0 Z " fill="#0C0A09" transform="translate(74,56)"/>
<path d="M0 0 C1.32 0 2.64 0 4 0 C4 2.64 4 5.28 4 8 C2.68 8 1.36 8 0 8 C0 5.36 0 2.72 0 0 Z " fill="#0B0403" transform="translate(131,34)"/>
<path d="M0 0 C1.32 0 2.64 0 4 0 C4 2.64 4 5.28 4 8 C2.68 8 1.36 8 0 8 C0 5.36 0 2.72 0 0 Z " fill="#080100" transform="translate(34,25)"/>
<path d="M0 0 C1.65 0 3.3 0 5 0 C5.33 1.65 5.66 3.3 6 5 C4.02 5 2.04 5 0 5 C0 3.35 0 1.7 0 0 Z " fill="#222120" transform="translate(117,15)"/>
<path d="M0 0 C0.99 0 1.98 0 3 0 C3 2.64 3 5.28 3 8 C2.01 7.67 1.02 7.34 0 7 C0 4.69 0 2.38 0 0 Z " fill="#090202" transform="translate(39,162)"/>
<path d="M0 0 C0.33 0 0.66 0 1 0 C1 2.64 1 5.28 1 8 C2.32 8.66 3.64 9.32 5 10 C4.01 10 3.02 10 2 10 C1.67 10.99 1.34 11.98 1 13 C0.896875 12.360625 0.79375 11.72125 0.6875 11.0625 C0.460625 10.381875 0.23375 9.70125 0 9 C-0.99 8.67 -1.98 8.34 -3 8 C-2.01 8 -1.02 8 0 8 C0 5.36 0 2.72 0 0 Z " fill="#66625D" transform="translate(130,91)"/>
<path d="M0 0 C2.31 0 4.62 0 7 0 C7 0.99 7 1.98 7 3 C4.69 3 2.38 3 0 3 C0 2.01 0 1.02 0 0 Z " fill="#F2CBD1" transform="translate(69,70)"/>
<path d="M0 0 C0.33 0.99 0.66 1.98 1 3 C1.99 3.33 2.98 3.66 4 4 C-0.68493876 6.48887372 -3.9444214 5.85687773 -9 5 C-9 4.67 -9 4.34 -9 4 C-6.36 4 -3.72 4 -1 4 C-0.67 2.68 -0.34 1.36 0 0 Z " fill="#5B615E" transform="translate(109,7)"/>
<path d="M0 0 C1.32 0 2.64 0 4 0 C4 1.65 4 3.3 4 5 C2.68 5 1.36 5 0 5 C0 3.35 0 1.7 0 0 Z " fill="#221D18" transform="translate(34,64)"/>
<path d="M0 0 C1.32 0 2.64 0 4 0 C4 1.65 4 3.3 4 5 C2.68 5 1.36 5 0 5 C0 3.35 0 1.7 0 0 Z " fill="#F2E9E6" transform="translate(100,55)"/>
<path d="M0 0 C1.32 0 2.64 0 4 0 C4 1.65 4 3.3 4 5 C2.68 5 1.36 5 0 5 C0 3.35 0 1.7 0 0 Z " fill="#251612" transform="translate(38,20)"/>
<path d="M0 0 C0.33 0.99 0.66 1.98 1 3 C1.99 3.33 2.98 3.66 4 4 C3.01 4 2.02 4 1 4 C1 6.64 1 9.28 1 12 C0.67 12 0.34 12 0 12 C0 9.36 0 6.72 0 4 C-0.99 3.67 -1.98 3.34 -3 3 C-2.01 3 -1.02 3 0 3 C0 2.01 0 1.02 0 0 Z " fill="#755C51" transform="translate(130,30)"/>
</svg>
