<?xml version="1.0" encoding="UTF-8"?>
<svg version="1.1" xmlns="http://www.w3.org/2000/svg" width="180" height="196">
<path d="M0 0 C59.4 0 118.8 0 180 0 C180 64.68 180 129.36 180 196 C120.6 196 61.2 196 0 196 C0 131.32 0 66.64 0 0 Z " fill="none" transform="translate(0,0)"/>
<path d="M0 0 C1.65 0 3.3 0 5 0 C5 2.97 5 5.94 5 9 C9.29 9 13.58 9 18 9 C18 10.32 18 11.64 18 13 C19.65 13 21.3 13 23 13 C23 14.65 23 16.3 23 18 C24.32 18 25.64 18 27 18 C27 20.97 27 23.94 27 27 C28.65 27 30.3 27 32 27 C32 33.93 32 40.86 32 48 C33.32 48 34.64 48 36 48 C36 51.3 36 54.6 36 58 C37.32 58 38.64 58 40 58 C40 59.32 40 60.64 40 62 C41.65 62 43.3 62 45 62 C45 63.32 45 64.64 45 66 C46.32 66 47.64 66 49 66 C49 67.65 49 69.3 49 71 C56.26 71 63.52 71 71 71 C71 69.35 71 67.7 71 66 C72.32 66 73.64 66 75 66 C75 64.68 75 63.36 75 62 C76.65 62 78.3 62 80 62 C80 60.68 80 59.36 80 58 C81.32 58 82.64 58 84 58 C84 50.41 84 42.82 84 35 C85.32 35 86.64 35 88 35 C88 33.68 88 32.36 88 31 C89.65 31 91.3 31 93 31 C93 29.35 93 27.7 93 26 C94.32 26 95.64 26 97 26 C97 24.68 97 23.36 97 22 C102.94 22 108.88 22 115 22 C115 20.68 115 19.36 115 18 C112.03 18 109.06 18 106 18 C106 16.35 106 14.7 106 13 C108.97 13 111.94 13 115 13 C115 11.68 115 10.36 115 9 C116.32 9 117.64 9 119 9 C119 10.65 119 12.3 119 14 C121.97 14 124.94 14 128 14 C128 15.32 128 16.64 128 18 C125.03 18 122.06 18 119 18 C119 20.97 119 23.94 119 27 C117.68 27 116.36 27 115 27 C115 29.97 115 32.94 115 36 C113.68 36 112.36 36 111 36 C111 38.64 111 41.28 111 44 C109.35 44 107.7 44 106 44 C106 45.65 106 47.3 106 49 C104.68 49 103.36 49 102 49 C102 58.9 102 68.8 102 79 C103.32 79 104.64 79 106 79 C106 84.94 106 90.88 106 97 C108.97 97 111.94 97 115 97 C115 98.32 115 99.64 115 101 C116.32 101 117.64 101 119 101 C119 103.97 119 106.94 119 110 C117.68 110 116.36 110 115 110 C115 111.65 115 113.3 115 115 C107.74 115 100.48 115 93 115 C93 113.35 93 111.7 93 110 C91.68 110 90.36 110 89 110 C89 111.65 89 113.3 89 115 C69.86 115 50.72 115 31 115 C31 113.68 31 112.36 31 111 C29.68 111 28.36 111 27 111 C27 112.32 27 113.64 27 115 C19.74 115 12.48 115 5 115 C5 113.35 5 111.7 5 110 C3.35 110 1.7 110 0 110 C0 107.03 0 104.06 0 101 C1.65 101 3.3 101 5 101 C5 99.68 5 98.36 5 97 C7.97 97 10.94 97 14 97 C14 94.03 14 91.06 14 88 C12.35 88 10.7 88 9 88 C9 72.16 9 56.32 9 40 C10.65 40 12.3 40 14 40 C14 38.68 14 37.36 14 36 C12.35 36 10.7 36 9 36 C9 34.35 9 32.7 9 31 C7.68 31 6.36 31 5 31 C5 25.39 5 19.78 5 14 C2.03 14 -0.94 14 -4 14 C-4 12.35 -4 10.7 -4 9 C-2.68 9 -1.36 9 0 9 C0 6.03 0 3.06 0 0 Z " fill="#C29785" transform="translate(20,64)"/>
<path d="M0 0 C11.55 0 23.1 0 35 0 C35 1.65 35 3.3 35 5 C37.97 5 40.94 5 44 5 C44 6.32 44 7.64 44 9 C46.64 9 49.28 9 52 9 C52 10.65 52 12.3 52 14 C53.65 14 55.3 14 57 14 C57 15.32 57 16.64 57 18 C58.32 18 59.64 18 61 18 C61 19.65 61 21.3 61 23 C65.29 23 69.58 23 74 23 C74 24.32 74 25.64 74 27 C75.65 27 77.3 27 79 27 C79 31.29 79 35.58 79 40 C77.35 40 75.7 40 74 40 C74.0721875 40.85980469 74.144375 41.71960937 74.21875 42.60546875 C74.85885669 50.75793867 75.12223341 58.82394294 75 67 C73.35 67 71.7 67 70 67 C70 68.32 70 69.64 70 71 C68.35 71 66.7 71 65 71 C65 69.68 65 68.36 65 67 C62.36 67 59.72 67 57 67 C57 65.35 57 63.7 57 62 C51.06 62 45.12 62 39 62 C39 63.65 39 65.3 39 67 C33.39 67 27.78 67 22 67 C22 68.32 22 69.64 22 71 C19.03 71 16.06 71 13 71 C13 72.65 13 74.3 13 76 C10.03 76 7.06 76 4 76 C4 74.35 4 72.7 4 71 C2.35 71 0.7 71 -1 71 C-1 68.36 -1 65.72 -1 63 C-2.32 63 -3.64 63 -5 63 C-5 61.35 -5 59.7 -5 58 C-9.29 58 -13.58 58 -18 58 C-18 56.35 -18 54.7 -18 53 C-19.32 53 -20.64 53 -22 53 C-22 51.68 -22 50.36 -22 49 C-26.62 49 -31.24 49 -36 49 C-36 43.39 -36 37.78 -36 32 C-37.32 32 -38.64 32 -40 32 C-40 27.38 -40 22.76 -40 18 C-38.68 18 -37.36 18 -36 18 C-36 16.68 -36 15.36 -36 14 C-34.35 14 -32.7 14 -31 14 C-31 12.68 -31 11.36 -31 10 C-28.03 10 -25.06 10 -22 10 C-22 11.32 -22 12.64 -22 14 C-20.68 14 -19.36 14 -18 14 C-18 12.35 -18 10.7 -18 9 C-15.03 9 -12.06 9 -9 9 C-9 7.68 -9 6.36 -9 5 C-6.36 5 -3.72 5 -1 5 C-0.67 3.35 -0.34 1.7 0 0 Z " fill="#C39886" transform="translate(65,2)"/>
<path d="M0 0 C4.29 0 8.58 0 13 0 C13 1.65 13 3.3 13 5 C14.32 5 15.64 5 17 5 C17 7.64 17 10.28 17 13 C18.65 13 20.3 13 22 13 C22 14.65 22 16.3 22 18 C24.97 18 27.94 18 31 18 C31 16.35 31 14.7 31 13 C33.97 13 36.94 13 40 13 C40 11.68 40 10.36 40 9 C45.61 9 51.22 9 57 9 C57 7.35 57 5.7 57 4 C62.94 4 68.88 4 75 4 C75 5.65 75 7.3 75 9 C77.64 9 80.28 9 83 9 C83 10.32 83 11.64 83 13 C84.65 13 86.3 13 88 13 C88 14.32 88 15.64 88 17 C85.03 17 82.06 17 79 17 C79 18.65 79 20.3 79 22 C81.97 22 84.94 22 88 22 C88 23.32 88 24.64 88 26 C82.06 26 76.12 26 70 26 C70 27.32 70 28.64 70 30 C68.68 30 67.36 30 66 30 C66 31.65 66 33.3 66 35 C64.35 35 62.7 35 61 35 C61 36.32 61 37.64 61 39 C59.68 39 58.36 39 57 39 C57 46.59 57 54.18 57 62 C55.68 62 54.36 62 53 62 C53 63.32 53 64.64 53 66 C51.35 66 49.7 66 48 66 C48 67.32 48 68.64 48 70 C46.68 70 45.36 70 44 70 C44 71.65 44 73.3 44 75 C36.74 75 29.48 75 22 75 C22 73.35 22 71.7 22 70 C20.68 70 19.36 70 18 70 C18 68.68 18 67.36 18 66 C16.35 66 14.7 66 13 66 C13 64.68 13 63.36 13 62 C11.68 62 10.36 62 9 62 C9 58.7 9 55.4 9 52 C7.68 52 6.36 52 5 52 C5 45.07 5 38.14 5 31 C3.35 31 1.7 31 0 31 C0 28.03 0 25.06 0 22 C-1.32 22 -2.64 22 -4 22 C-4 20.35 -4 18.7 -4 17 C-5.65 17 -7.3 17 -9 17 C-9 15.68 -9 14.36 -9 13 C-13.29 13 -17.58 13 -22 13 C-22 10.03 -22 7.06 -22 4 C-19.03 4 -16.06 4 -13 4 C-13 5.65 -13 7.3 -13 9 C-11.35 9 -9.7 9 -8 9 C-8 7.35 -8 5.7 -8 4 C-5.36 4 -2.72 4 0 4 C0 2.68 0 1.36 0 0 Z " fill="#FCEBDF" transform="translate(47,60)"/>
<path d="M0 0 C0.33 0 0.66 0 1 0 C1 1.65 1 3.3 1 5 C3.64 5 6.28 5 9 5 C9 6.32 9 7.64 9 9 C11.97 9 14.94 9 18 9 C18 11.97 18 14.94 18 18 C13.71 18 9.42 18 5 18 C5 19.65 5 21.3 5 23 C-37.24 23 -79.48 23 -123 23 C-123 21.35 -123 19.7 -123 18 C-125.97 18.33 -128.94 18.66 -132 19 C-132 17.02 -132 15.04 -132 13 C-130.68 13 -129.36 13 -128 13 C-128 11.68 -128 10.36 -128 9 C-123.38 9 -118.76 9 -114 9 C-114 10.65 -114 12.3 -114 14 C-106.74 14 -99.48 14 -92 14 C-92 12.68 -92 11.36 -92 10 C-90.68 10 -89.36 10 -88 10 C-88 11.32 -88 12.64 -88 14 C-68.86 14 -49.72 14 -30 14 C-30 12.35 -30 10.7 -30 9 C-28.68 9 -27.36 9 -26 9 C-26 10.65 -26 12.3 -26 14 C-18.74 14 -11.48 14 -4 14 C-4 12.35 -4 10.7 -4 9 C-2.68 9 -1.36 9 0 9 C0 6.03 0 3.06 0 0 Z " fill="#5C3317" transform="translate(139,165)"/>
<path d="M0 0 C1.32 0 2.64 0 4 0 C4 5.61 4 11.22 4 17 C6.97 17 9.94 17 13 17 C13 18.32 13 19.64 13 21 C14.32 21 15.64 21 17 21 C17 23.97 17 26.94 17 30 C15.68 30 14.36 30 13 30 C13 31.65 13 33.3 13 35 C5.74 35 -1.52 35 -9 35 C-9 33.35 -9 31.7 -9 30 C-10.32 30 -11.64 30 -13 30 C-13 31.65 -13 33.3 -13 35 C-32.14 35 -51.28 35 -71 35 C-71 33.68 -71 32.36 -71 31 C-72.32 31 -73.64 31 -75 31 C-75 32.32 -75 33.64 -75 35 C-82.26 35 -89.52 35 -97 35 C-97 33.35 -97 31.7 -97 30 C-91.39 30 -85.78 30 -80 30 C-80 28.68 -80 27.36 -80 26 C-81.32 26 -82.64 26 -84 26 C-84 23.03 -84 20.06 -84 17 C-82.35 17 -80.7 17 -79 17 C-79 19.97 -79 22.94 -79 26 C-76.03 26 -73.06 26 -70 26 C-70 27.32 -70 28.64 -70 30 C-51.52 30 -33.04 30 -14 30 C-14 28.68 -14 27.36 -14 26 C-11.03 26 -8.06 26 -5 26 C-5 24.35 -5 22.7 -5 21 C-3.35 21 -1.7 21 0 21 C0 14.07 0 7.14 0 0 Z " fill="#070F0F" transform="translate(122,144)"/>
<path d="M0 0 C6.93 0 13.86 0 21 0 C21.33 1.65 21.66 3.3 22 5 C23.32 5 24.64 5 26 5 C26 6.32 26 7.64 26 9 C27.32 9 28.64 9 30 9 C30 12.96 30 16.92 30 21 C18.45 21 6.9 21 -5 21 C-5 15.72 -5 10.44 -5 5 C-3.35 5 -1.7 5 0 5 C0 3.35 0 1.7 0 0 Z " fill="#BA8875" transform="translate(65,152)"/>
<path d="M0 0 C4.29 0 8.58 0 13 0 C13 1.32 13 2.64 13 4 C14.65 4 16.3 4 18 4 C18 8.29 18 12.58 18 17 C16.35 17 14.7 17 13 17 C13.0721875 17.85980469 13.144375 18.71960938 13.21875 19.60546875 C13.85885669 27.75793867 14.12223341 35.82394294 14 44 C12.35 44 10.7 44 9 44 C9 45.32 9 46.64 9 48 C7.68 48 6.36 48 5 48 C5 46.35 5 44.7 5 43 C6.32 43 7.64 43 9 43 C9 34.42 9 25.84 9 17 C7.35 17 5.7 17 4 17 C4 14.36 4 11.72 4 9 C2.68 9 1.36 9 0 9 C0 6.03 0 3.06 0 0 Z " fill="#BF9A8B" transform="translate(126,25)"/>
<path d="M0 0 C1.65 0 3.3 0 5 0 C5 2.97 5 5.94 5 9 C9.29 9 13.58 9 18 9 C18 10.32 18 11.64 18 13 C19.65 13 21.3 13 23 13 C23 14.65 23 16.3 23 18 C24.32 18 25.64 18 27 18 C27 20.97 27 23.94 27 27 C25.35 27 23.7 27 22 27 C22 24.03 22 21.06 22 18 C20.68 18 19.36 18 18 18 C18 16.68 18 15.36 18 14 C15.36 14 12.72 14 10 14 C10 19.61 10 25.22 10 31 C11.32 31 12.64 31 14 31 C14 32.32 14 33.64 14 35 C15.32 35 16.64 35 18 35 C18 36.65 18 38.3 18 40 C16.68 40 15.36 40 14 40 C14 38.68 14 37.36 14 36 C12.35 36 10.7 36 9 36 C9 34.35 9 32.7 9 31 C7.68 31 6.36 31 5 31 C5 25.39 5 19.78 5 14 C2.03 14 -0.94 14 -4 14 C-4 12.35 -4 10.7 -4 9 C-2.68 9 -1.36 9 0 9 C0 6.03 0 3.06 0 0 Z " fill="#0A0C0D" transform="translate(20,64)"/>
<path d="M0 0 C11.55 0 23.1 0 35 0 C35 1.65 35 3.3 35 5 C37.64 5 40.28 5 43 5 C43 6.32 43 7.64 43 9 C40.03 9 37.06 9 34 9 C34 8.01 34 7.02 34 6 C22.78 6 11.56 6 0 6 C0 7.32 0 8.64 0 10 C-2.97 10 -5.94 10 -9 10 C-9 11.32 -9 12.64 -9 14 C-11.97 14 -14.94 14 -18 14 C-18 12.35 -18 10.7 -18 9 C-15.03 9 -12.06 9 -9 9 C-9 7.68 -9 6.36 -9 5 C-6.36 5 -3.72 5 -1 5 C-0.67 3.35 -0.34 1.7 0 0 Z " fill="#827872" transform="translate(65,2)"/>
<path d="M0 0 C1.32 0 2.64 0 4 0 C4 1.65 4 3.3 4 5 C6.97 5 9.94 5 13 5 C13 6.32 13 7.64 13 9 C10.03 9 7.06 9 4 9 C4 11.97 4 14.94 4 18 C2.68 18 1.36 18 0 18 C0 20.64 0 23.28 0 26 C-1.32 26 -2.64 26 -4 26 C-4 23.36 -4 20.72 -4 18 C-8.29 18 -12.58 18 -17 18 C-17 16.35 -17 14.7 -17 13 C-11.39 13 -5.78 13 0 13 C0 11.68 0 10.36 0 9 C-2.97 9 -5.94 9 -9 9 C-9 7.35 -9 5.7 -9 4 C-6.03 4 -3.06 4 0 4 C0 2.68 0 1.36 0 0 Z " fill="#101110" transform="translate(135,73)"/>
<path d="M0 0 C1.32 0 2.64 0 4 0 C4 5.94 4 11.88 4 18 C5.32 18 6.64 18 8 18 C8 19.32 8 20.64 8 22 C0.74 22 -6.52 22 -14 22 C-14 19.03 -14 16.06 -14 13 C-12.35 13 -10.7 13 -9 13 C-9 11.68 -9 10.36 -9 9 C-6.03 9 -3.06 9 0 9 C0 6.03 0 3.06 0 0 Z " fill="#B29485" transform="translate(34,152)"/>
<path d="M0 0 C1.65 0 3.3 0 5 0 C5 1.32 5 2.64 5 4 C9.29 4 13.58 4 18 4 C18 5.32 18 6.64 18 8 C20.64 8 23.28 8 26 8 C26 6.68 26 5.36 26 4 C27.65 4 29.3 4 31 4 C31 5.65 31 7.3 31 9 C29.68 9 28.36 9 27 9 C27 10.32 27 11.64 27 13 C24.03 13 21.06 13 18 13 C18 14.65 18 16.3 18 18 C15.03 18 12.06 18 9 18 C9 16.35 9 14.7 9 13 C7.35 13 5.7 13 4 13 C4 10.36 4 7.72 4 5 C2.68 5 1.36 5 0 5 C0 3.35 0 1.7 0 0 Z " fill="#514A44" transform="translate(60,60)"/>
<path d="M0 0 C4.29 0 8.58 0 13 0 C13 1.32 13 2.64 13 4 C18.94 4 24.88 4 31 4 C31 5.65 31 7.3 31 9 C29.35 9 27.7 9 26 9 C26 10.32 26 11.64 26 13 C20.39 13 14.78 13 9 13 C9 11.35 9 9.7 9 8 C7.68 8 6.36 8 5 8 C5 6.68 5 5.36 5 4 C3.35 3.67 1.7 3.34 0 3 C0 2.01 0 1.02 0 0 Z " fill="#FBD6C8" transform="translate(60,91)"/>
<path d="M0 0 C1.65 0 3.3 0 5 0 C5 15.84 5 31.68 5 48 C3.35 48 1.7 48 0 48 C0 32.16 0 16.32 0 0 Z " fill="#191919" transform="translate(29,104)"/>
<path d="M0 0 C4.29 0 8.58 0 13 0 C13 1.32 13 2.64 13 4 C10.03 4 7.06 4 4 4 C4 5.65 4 7.3 4 9 C7.3 9 10.6 9 14 9 C14 7.68 14 6.36 14 5 C14.99 5 15.98 5 17 5 C17 6.32 17 7.64 17 9 C18.65 9 20.3 9 22 9 C22 10.32 22 11.64 22 13 C20.35 13 18.7 13 17 13 C17 14.32 17 15.64 17 17 C14.36 17 11.72 17 9 17 C9 15.68 9 14.36 9 13 C4.71 13 0.42 13 -4 13 C-4 10.03 -4 7.06 -4 4 C-2.68 4 -1.36 4 0 4 C0 2.68 0 1.36 0 0 Z " fill="#FCEDE1" transform="translate(69,51)"/>
<path d="M0 0 C1.65 0 3.3 0 5 0 C5 1.65 5 3.3 5 5 C3.68 5 2.36 5 1 5 C1 8.96 1 12.92 1 17 C1.99 17 2.98 17 4 17 C4 14.36 4 11.72 4 9 C5.65 9 7.3 9 9 9 C9 11.97 9 14.94 9 18 C7.68 18 6.36 18 5 18 C5 23.61 5 29.22 5 35 C3.35 35 1.7 35 0 35 C0 29.39 0 23.78 0 18 C-1.32 18 -2.64 18 -4 18 C-4 13.38 -4 8.76 -4 4 C-2.68 4 -1.36 4 0 4 C0 2.68 0 1.36 0 0 Z " fill="#59504B" transform="translate(29,16)"/>
<path d="M0 0 C4.62 0 9.24 0 14 0 C14 1.32 14 2.64 14 4 C15.32 4 16.64 4 18 4 C18.08226668 7.04386724 17.97608217 9.07175348 17 12 C13.37 12 9.74 12 6 12 C6 11.01 6 10.02 6 9 C2.7 9 -0.6 9 -4 9 C-4 7.68 -4 6.36 -4 5 C-2.68 5 -1.36 5 0 5 C0 3.35 0 1.7 0 0 Z " fill="#E6CBB3" transform="translate(29,51)"/>
<path d="M0 0 C1.65 0 3.3 0 5 0 C5 2.97 5 5.94 5 9 C7.64 9 10.28 9 13 9 C13 10.32 13 11.64 13 13 C11.68 13 10.36 13 9 13 C9 14.65 9 16.3 9 18 C1.74 18 -5.52 18 -13 18 C-13 16.35 -13 14.7 -13 13 C-7.39 13 -1.78 13 4 13 C4 11.68 4 10.36 4 9 C2.68 9 1.36 9 0 9 C0 6.03 0 3.06 0 0 Z " fill="#0E1212" transform="translate(38,161)"/>
<path d="M0 0 C1.65 0 3.3 0 5 0 C5 1.65 5 3.3 5 5 C3.68 5 2.36 5 1 5 C1 14.9 1 24.8 1 35 C-0.65 35 -2.3 35 -4 35 C-4 24.77 -4 14.54 -4 4 C-2.68 4 -1.36 4 0 4 C0 2.68 0 1.36 0 0 Z " fill="#030101" transform="translate(121,108)"/>
<path d="M0 0 C18.48 0 36.96 0 56 0 C56 0.99 56 1.98 56 3 C37.52 3 19.04 3 0 3 C0 2.01 0 1.02 0 0 Z " fill="#010101" transform="translate(52,175)"/>
<path d="M0 0 C4.62 0 9.24 0 14 0 C14 1.65 14 3.3 14 5 C15.32 5 16.64 5 18 5 C18 7.97 18 10.94 18 14 C16.35 14 14.7 14 13 14 C13 11.03 13 8.06 13 5 C11.68 5 10.36 5 9 5 C9 3.68 9 2.36 9 1 C6.36 1 3.72 1 1 1 C1 6.61 1 12.22 1 18 C2.32 18 3.64 18 5 18 C5 19.32 5 20.64 5 22 C6.32 22 7.64 22 9 22 C9 23.65 9 25.3 9 27 C7.68 27 6.36 27 5 27 C5 25.68 5 24.36 5 23 C3.35 23 1.7 23 0 23 C0 15.41 0 7.82 0 0 Z " fill="#463934" transform="translate(29,77)"/>
<path d="M0 0 C1.32 0 2.64 0 4 0 C4.75741925 9.02140429 5.13534286 17.94706663 5 27 C3.35 27 1.7 27 0 27 C0 28.32 0 29.64 0 31 C-1.32 31 -2.64 31 -4 31 C-4 29.35 -4 27.7 -4 26 C-2.68 26 -1.36 26 0 26 C0 17.42 0 8.84 0 0 Z " fill="#060404" transform="translate(135,42)"/>
<path d="M0 0 C11.22 0 22.44 0 34 0 C34 1.32 34 2.64 34 4 C22.78 4 11.56 4 0 4 C0 2.68 0 1.36 0 0 Z " fill="#040302" transform="translate(65,3)"/>
<path d="M0 0 C0.33 1.32 0.66 2.64 1 4 C19.48 4 37.96 4 57 4 C57.33 2.68 57.66 1.36 58 0 C58 2.97 58 5.94 58 9 C38.86 9 19.72 9 0 9 C0 7.68 0 6.36 0 5 C-1.32 4.67 -2.64 4.34 -4 4 C-2.68 4 -1.36 4 0 4 C0 2.68 0 1.36 0 0 Z M1 5 C1 5.99 1 6.98 1 8 C19.48 8 37.96 8 57 8 C57 7.01 57 6.02 57 5 C38.52 5 20.04 5 1 5 Z " fill="#5C3317" transform="translate(51,170)"/>
<path d="M0 0 C5.94 0 11.88 0 18 0 C18 1.65 18 3.3 18 5 C16.35 5 14.7 5 13 5 C13 6.32 13 7.64 13 9 C10.03 9 7.06 9 4 9 C4 7.68 4 6.36 4 5 C2.68 5 1.36 5 0 5 C0 3.35 0 1.7 0 0 Z " fill="#F1C8A5" transform="translate(104,73)"/>
<path d="M0 0 C4.29 0 8.58 0 13 0 C13 2.64 13 5.28 13 8 C7.39 8 1.78 8 -4 8 C-4 6.68 -4 5.36 -4 4 C-2.68 4 -1.36 4 0 4 C0 2.68 0 1.36 0 0 Z " fill="#C39A89" transform="translate(122,166)"/>
<path d="M0 0 C1.32 0 2.64 0 4 0 C4 5.61 4 11.22 4 17 C6.97 17 9.94 17 13 17 C13 18.32 13 19.64 13 21 C8.71 21 4.42 21 0 21 C0 14.07 0 7.14 0 0 Z " fill="#040507" transform="translate(122,144)"/>
<path d="M0 0 C1.65 0 3.3 0 5 0 C5 1.65 5 3.3 5 5 C6.32 5 7.64 5 9 5 C9 7.97 9 10.94 9 14 C6.03 14 3.06 14 0 14 C0 9.38 0 4.76 0 0 Z " fill="#191412" transform="translate(95,55)"/>
<path d="M0 0 C1.32 0 2.64 0 4 0 C4 1.32 4 2.64 4 4 C5.65 4 7.3 4 9 4 C9 6.97 9 9.94 9 13 C6.03 13 3.06 13 0 13 C0 8.71 0 4.42 0 0 Z " fill="#0F0A08" transform="translate(47,47)"/>
<path d="M0 0 C7.26 0 14.52 0 22 0 C22 2.97 22 5.94 22 9 C18.85309225 9.78672694 16.8062379 10.12004456 13.671875 10.09765625 C12.87265625 10.09443359 12.0734375 10.09121094 11.25 10.08789062 C10.425 10.07951172 9.6 10.07113281 8.75 10.0625 C7.90953125 10.05798828 7.0690625 10.05347656 6.203125 10.04882812 C4.13538599 10.03707961 2.06768376 10.01914522 0 10 C0 6.7 0 3.4 0 0 Z M5 1 C5 2.32 5 3.64 5 5 C3.68 5 2.36 5 1 5 C1 6.32 1 7.64 1 9 C6.61 9 12.22 9 18 9 C18 6.36 18 3.72 18 1 C13.71 1 9.42 1 5 1 Z " fill="#443731" transform="translate(117,165)"/>
<path d="M0 0 C2.97 0 5.94 0 9 0 C9 1.65 9 3.3 9 5 C10.32 5.33 11.64 5.66 13 6 C12.67 6.99 12.34 7.98 12 9 C8.04 9 4.08 9 0 9 C0 6.03 0 3.06 0 0 Z " fill="#EFE4DB" transform="translate(25,64)"/>
<path d="M0 0 C2.64 0 5.28 0 8 0 C8 1.32 8 2.64 8 4 C6.68 4 5.36 4 4 4 C4 5.65 4 7.3 4 9 C2.35 9 0.7 9 -1 9 C-1 11.64 -1 14.28 -1 17 C-1.99 17 -2.98 17 -4 17 C-4 13.04 -4 9.08 -4 5 C-2.68 5 -1.36 5 0 5 C0 3.35 0 1.7 0 0 Z " fill="#C19A8B" transform="translate(34,16)"/>
<path d="M0 0 C1.65 0 3.3 0 5 0 C5 1.65 5 3.3 5 5 C3.68 5 2.36 5 1 5 C1 14.9 1 24.8 1 35 C0.67 35 0.34 35 0 35 C0 25.1 0 15.2 0 5 C-0.99 5 -1.98 5 -3 5 C-3 14.9 -3 24.8 -3 35 C-3.33 35 -3.66 35 -4 35 C-4 24.77 -4 14.54 -4 4 C-2.68 4 -1.36 4 0 4 C0 2.68 0 1.36 0 0 Z " fill="#373938" transform="translate(121,108)"/>
<path d="M0 0 C1.32 0 2.64 0 4 0 C4 1.65 4 3.3 4 5 C2.68 5 1.36 5 0 5 C0 6.32 0 7.64 0 9 C-4.29 9 -8.58 9 -13 9 C-13 7.35 -13 5.7 -13 4 C-8.71 4 -4.42 4 0 4 C0 2.68 0 1.36 0 0 Z " fill="#5C3317" transform="translate(25,51)"/>
<path d="M0 0 C2.97 0 5.94 0 9 0 C9 1.32 9 2.64 9 4 C10.32 4 11.64 4 13 4 C13 5.65 13 7.3 13 9 C11.68 9 10.36 9 9 9 C9 10.32 9 11.64 9 13 C7.35 13 5.7 13 4 13 C4 11.35 4 9.7 4 8 C5.32 8 6.64 8 8 8 C8 6.68 8 5.36 8 4 C5.36 4 2.72 4 0 4 C0 2.68 0 1.36 0 0 Z " fill="#3C332F" transform="translate(34,12)"/>
<path d="M0 0 C3.3 0 6.6 0 10 0 C10 0.99 10 1.98 10 3 C13.63 3 17.26 3 21 3 C21 2.34 21 1.68 21 1 C20.34 0.67 19.68 0.34 19 0 C19.99 0 20.98 0 22 0 C22 1.32 22 2.64 22 4 C19.36 4 16.72 4 14 4 C14 5.65 14 7.3 14 9 C12.35 9 10.7 9 9 9 C9 7.35 9 5.7 9 4 C6.03 4 3.06 4 0 4 C0 2.68 0 1.36 0 0 Z " fill="#EACAAE" transform="translate(25,60)"/>
<path d="M0 0 C2.97 0 5.94 0 9 0 C9 2.97 9 5.94 9 9 C6.03 9 3.06 9 0 9 C0 6.03 0 3.06 0 0 Z " fill="#B09F9D" transform="translate(69,69)"/>
<path d="M0 0 C11.55 0 23.1 0 35 0 C35 1.65 35 3.3 35 5 C37.64 5 40.28 5 43 5 C43 6.32 43 7.64 43 9 C40.03 9 37.06 9 34 9 C34 6.36 34 3.72 34 1 C22.78 1 11.56 1 0 1 C0 0.67 0 0.34 0 0 Z " fill="#5C3317" transform="translate(65,2)"/>
<path d="M0 0 C1.65 0 3.3 0 5 0 C5 1.65 5 3.3 5 5 C3.68 5 2.36 5 1 5 C1 6.32 1 7.64 1 9 C-1.97 9 -4.94 9 -8 9 C-8 7.35 -8 5.7 -8 4 C-5.36 4 -2.72 4 0 4 C0 2.68 0 1.36 0 0 Z " fill="#59544E" transform="translate(86,64)"/>
<path d="M0 0 C4.29 0 8.58 0 13 0 C13 1.32 13 2.64 13 4 C10.03 4 7.06 4 4 4 C4 5.32 4 6.64 4 8 C2.68 8 1.36 8 0 8 C0 5.36 0 2.72 0 0 Z " fill="#080403" transform="translate(126,25)"/>
<path d="M0 0 C1.65 0 3.3 0 5 0 C5 4.29 5 8.58 5 13 C3.35 13 1.7 13 0 13 C0 8.71 0 4.42 0 0 Z " fill="#181C1C" transform="translate(139,29)"/>
<path d="M0 0 C1.4540625 0.0309375 1.4540625 0.0309375 2.9375 0.0625 C2.9375 1.3825 2.9375 2.7025 2.9375 4.0625 C4.2575 4.3925 5.5775 4.7225 6.9375 5.0625 C6.9375 5.7225 6.9375 6.3825 6.9375 7.0625 C3.3075 7.0625 -0.3225 7.0625 -4.0625 7.0625 C-4.10504356 5.06295254 -4.10330783 3.06208364 -4.0625 1.0625 C-3.0625 0.0625 -3.0625 0.0625 0 0 Z " fill="#F3C49D" transform="translate(39.0625,55.9375)"/>
<path d="M0 0 C3.96 0 7.92 0 12 0 C12 0.99 12 1.98 12 3 C9.36 3 6.72 3 4 3 C4 4.65 4 6.3 4 8 C2.68 8 1.36 8 0 8 C0 5.36 0 2.72 0 0 Z " fill="#060303" transform="translate(65,65)"/>
<path d="M0 0 C1.32 0.33 2.64 0.66 4 1 C3.34 1.66 2.68 2.32 2 3 C1.67022394 5.01833943 1.67022394 5.01833943 1.68115234 7.35791016 C1.66128265 8.25869293 1.64141296 9.15947571 1.62094116 10.08755493 C1.60361435 11.54855118 1.60361435 11.54855118 1.5859375 13.0390625 C1.56657135 14.03505463 1.5472052 15.03104675 1.5272522 16.05722046 C1.46735035 19.2463925 1.42102862 22.43560043 1.375 25.625 C1.33682999 27.78387013 1.29777884 29.94272488 1.2578125 32.1015625 C1.1616403 37.40090534 1.07662411 42.70034043 1 48 C0.67 48 0.34 48 0 48 C0 32.16 0 16.32 0 0 Z " fill="#C2A395" transform="translate(34,104)"/>
<path d="M0 0 C0.99 0 1.98 0 3 0 C3 5.61 3 11.22 3 17 C2.01 17 1.02 17 0 17 C0 11.39 0 5.78 0 0 Z " fill="#020202" transform="translate(30,34)"/>
<path d="M0 0 C1.65 0 3.3 0 5 0 C5 4.29 5 8.58 5 13 C4.67 11.68 4.34 10.36 4 9 C2.68 9 1.36 9 0 9 C0 6.03 0 3.06 0 0 Z " fill="#463129" transform="translate(38,161)"/>
<path d="M0 0 C1.65 0 3.3 0 5 0 C5 1.65 5 3.3 5 5 C3.68 5 2.36 5 1 5 C1 6.32 1 7.64 1 9 C-0.65 9 -2.3 9 -4 9 C-4 7.35 -4 5.7 -4 4 C-2.68 4 -1.36 4 0 4 C0 2.68 0 1.36 0 0 Z " fill="#342B26" transform="translate(108,95)"/>
<path d="M0 0 C3.96 0 7.92 0 12 0 C12 1.32 12 2.64 12 4 C8.04 4 4.08 4 0 4 C0 2.68 0 1.36 0 0 Z " fill="#FAE9DA" transform="translate(30,51)"/>
<path d="M0 0 C1.32 0 2.64 0 4 0 C4 3.96 4 7.92 4 12 C2.68 12 1.36 12 0 12 C0 8.04 0 4.08 0 0 Z " fill="#020405" transform="translate(25,21)"/>
<path d="M0 0 C1.32 0.33 2.64 0.66 4 1 C3.01 1 2.02 1 1 1 C1 9.25 1 17.5 1 26 C0.67 26 0.34 26 0 26 C0 17.42 0 8.84 0 0 Z M-5 26 C-3.35 26 -1.7 26 0 26 C0 27.32 0 28.64 0 30 C-1.65 30 -3.3 30 -5 30 C-5 28.68 -5 27.36 -5 26 Z " fill="#F5E7D5" transform="translate(140,43)"/>
<path d="M0 0 C0.33 1.32 0.66 2.64 1 4 C2.32 4 3.64 4 5 4 C5 5.65 5 7.3 5 9 C3.35 9 1.7 9 0 9 C0 7.68 0 6.36 0 5 C-3.96 5 -7.92 5 -12 5 C-12 4.67 -12 4.34 -12 4 C-8.04 4 -4.08 4 0 4 C0 2.68 0 1.36 0 0 Z " fill="#F2D8C4" transform="translate(42,51)"/>
<path d="M0 0 C0.33 0 0.66 0 1 0 C1 4.29 1 8.58 1 13 C-0.65 13 -2.3 13 -4 13 C-4 14.32 -4 15.64 -4 17 C-5.32 17 -6.64 17 -8 17 C-8 15.35 -8 13.7 -8 12 C-5.36 12 -2.72 12 0 12 C0 8.04 0 4.08 0 0 Z " fill="#5C3317" transform="translate(139,56)"/>
<path d="M0 0 C2.97 0 5.94 0 9 0 C9 1.32 9 2.64 9 4 C6.03 4 3.06 4 0 4 C0 2.68 0 1.36 0 0 Z " fill="#0D0E0F" transform="translate(25,161)"/>
<path d="M0 0 C1.32 0 2.64 0 4 0 C4 2.97 4 5.94 4 9 C2.68 9 1.36 9 0 9 C0 6.03 0 3.06 0 0 Z " fill="#0B0706" transform="translate(34,152)"/>
<path d="M0 0 C1.32 0 2.64 0 4 0 C4 2.97 4 5.94 4 9 C2.68 9 1.36 9 0 9 C0 6.03 0 3.06 0 0 Z " fill="#120B0B" transform="translate(43,82)"/>
<path d="M0 0 C2.97 0 5.94 0 9 0 C9 1.32 9 2.64 9 4 C6.03 4 3.06 4 0 4 C0 2.68 0 1.36 0 0 Z " fill="#0B0806" transform="translate(25,60)"/>
<path d="M0 0 C3.96 0 7.92 0 12 0 C12 0.99 12 1.98 12 3 C8.04 3 4.08 3 0 3 C0 2.01 0 1.02 0 0 Z " fill="#010304" transform="translate(12,56)"/>
<path d="M0 0 C2.97 0 5.94 0 9 0 C9 1.32 9 2.64 9 4 C6.03 4 3.06 4 0 4 C0 2.68 0 1.36 0 0 Z " fill="#110D0B" transform="translate(47,12)"/>
<path d="M0 0 C1.32 0 2.64 0 4 0 C4 2.64 4 5.28 4 8 C2.68 8 1.36 8 0 8 C0 5.36 0 2.72 0 0 Z " fill="#020503" transform="translate(135,166)"/>
<path d="M0 0 C1.32 0 2.64 0 4 0 C4 2.64 4 5.28 4 8 C2.68 8 1.36 8 0 8 C0 5.36 0 2.72 0 0 Z " fill="#080908" transform="translate(21,166)"/>
<path d="M0 0 C1.32 0 2.64 0 4 0 C4 2.64 4 5.28 4 8 C2.68 8 1.36 8 0 8 C0 5.36 0 2.72 0 0 Z " fill="#0B0703" transform="translate(126,100)"/>
<path d="M0 0 C2.64 0 5.28 0 8 0 C8 1.32 8 2.64 8 4 C5.36 4 2.72 4 0 4 C0 2.68 0 1.36 0 0 Z " fill="#00060A" transform="translate(140,91)"/>
<path d="M0 0 C1.32 0 2.64 0 4 0 C4 2.64 4 5.28 4 8 C2.68 8 1.36 8 0 8 C0 5.36 0 2.72 0 0 Z " fill="#060201" transform="translate(47,91)"/>
<path d="M0 0 C2.64 0 5.28 0 8 0 C8 1.32 8 2.64 8 4 C5.36 4 2.72 4 0 4 C0 2.68 0 1.36 0 0 Z " fill="#0C0606" transform="translate(69,73)"/>
<path d="M0 0 C2.64 0 5.28 0 8 0 C8 1.32 8 2.64 8 4 C5.36 4 2.72 4 0 4 C0 2.68 0 1.36 0 0 Z " fill="#030101" transform="translate(78,69)"/>
<path d="M0 0 C2.64 0 5.28 0 8 0 C8 1.32 8 2.64 8 4 C5.36 4 2.72 4 0 4 C0 2.68 0 1.36 0 0 Z " fill="#0C0A09" transform="translate(74,56)"/>
<path d="M0 0 C1.32 0 2.64 0 4 0 C4 2.64 4 5.28 4 8 C2.68 8 1.36 8 0 8 C0 5.36 0 2.72 0 0 Z " fill="#0B0403" transform="translate(131,34)"/>
<path d="M0 0 C1.32 0 2.64 0 4 0 C4 2.64 4 5.28 4 8 C2.68 8 1.36 8 0 8 C0 5.36 0 2.72 0 0 Z " fill="#080100" transform="translate(34,25)"/>
<path d="M0 0 C1.65 0 3.3 0 5 0 C5 1.65 5 3.3 5 5 C3.68 5 2.36 5 1 5 C0.67 5.99 0.34 6.98 0 8 C0 7.01 0 6.02 0 5 C-1.32 4.67 -2.64 4.34 -4 4 C-2.68 4 -1.36 4 0 4 C0 2.68 0 1.36 0 0 Z " fill="#373330" transform="translate(29,16)"/>
<path d="M0 0 C2.64 0 5.28 0 8 0 C8 1.32 8 2.64 8 4 C5.36 4 2.72 4 0 4 C0 2.68 0 1.36 0 0 Z " fill="#090706" transform="translate(109,12)"/>
<path d="M0 0 C2.64 0 5.28 0 8 0 C8 1.32 8 2.64 8 4 C5.36 4 2.72 4 0 4 C0 2.68 0 1.36 0 0 Z " fill="#080806" transform="translate(34,12)"/>
<path d="M0 0 C2.64 0 5.28 0 8 0 C8 1.32 8 2.64 8 4 C5.36 4 2.72 4 0 4 C0 2.68 0 1.36 0 0 Z " fill="#060A0B" transform="translate(100,7)"/>
<path d="M0 0 C2.64 0 5.28 0 8 0 C8 1.32 8 2.64 8 4 C5.36 4 2.72 4 0 4 C0 2.68 0 1.36 0 0 Z " fill="#05090A" transform="translate(56,7)"/>
<path d="M0 0 C0.33 0 0.66 0 1 0 C1 2.97 1 5.94 1 9 C-0.32 9 -1.64 9 -3 9 C-3 10.65 -3 12.3 -3 14 C-3.66 14 -4.32 14 -5 14 C-5.33 12.68 -5.66 11.36 -6 10 C-5.38125 9.835 -4.7625 9.67 -4.125 9.5 C-0.72243051 7.09818625 -0.77387974 3.99837866 0 0 Z " fill="#F5E7D5" transform="translate(19,64)"/>
<path d="M0 0 C0.33 0 0.66 0 1 0 C1 2.64 1 5.28 1 8 C2.32 8.33 3.64 8.66 5 9 C3.68 9 2.36 9 1 9 C1 11.64 1 14.28 1 17 C0.67 17 0.34 17 0 17 C0 14.36 0 11.72 0 9 C-1.32 8.67 -2.64 8.34 -4 8 C-2.68 8 -1.36 8 0 8 C0 5.36 0 2.72 0 0 Z " fill="#62605B" transform="translate(130,91)"/>
<path d="M0 0 C0.33 1.32 0.66 2.64 1 4 C3.64 4 6.28 4 9 4 C9 4.33 9 4.66 9 5 C6.36 5 3.72 5 1 5 C0.67 6.32 0.34 7.64 0 9 C0 7.68 0 6.36 0 5 C-2.64 5 -5.28 5 -8 5 C-8 4.67 -8 4.34 -8 4 C-5.36 4 -2.72 4 0 4 C0 2.68 0 1.36 0 0 Z " fill="#5A615E" transform="translate(108,7)"/>
<path d="M0 0 C0.99 0 1.98 0 3 0 C3 2.64 3 5.28 3 8 C2.01 7.67 1.02 7.34 0 7 C0 4.69 0 2.38 0 0 Z " fill="#080101" transform="translate(39,162)"/>
<path d="M0 0 C1.32 0.33 2.64 0.66 4 1 C4 1.66 4 2.32 4 3 C5.65 3.33 7.3 3.66 9 4 C9 4.33 9 4.66 9 5 C6.03 5 3.06 5 0 5 C0 3.35 0 1.7 0 0 Z " fill="#5C3317" transform="translate(16,73)"/>
<path d="M0 0 C1.32 0 2.64 0 4 0 C3.6875 2.875 3.6875 2.875 3 6 C2.01 6.66 1.02 7.32 0 8 C0 5.36 0 2.72 0 0 Z " fill="#F5E7D5" transform="translate(135,91)"/>
<path d="M0 0 C2.31 0 4.62 0 7 0 C7 0.99 7 1.98 7 3 C4.69 3 2.38 3 0 3 C0 2.01 0 1.02 0 0 Z " fill="#F2CBD1" transform="translate(69,70)"/>
<path d="M0 0 C0.33 1.32 0.66 2.64 1 4 C2.32 4.33 3.64 4.66 5 5 C3.68 5 2.36 5 1 5 C1 7.64 1 10.28 1 13 C0.67 13 0.34 13 0 13 C0 10.36 0 7.72 0 5 C-1.32 4.67 -2.64 4.34 -4 4 C-2.68 4 -1.36 4 0 4 C0 2.68 0 1.36 0 0 Z " fill="#654E44" transform="translate(130,29)"/>
<path d="M0 0 C1.32 0 2.64 0 4 0 C4 1.65 4 3.3 4 5 C2.68 5 1.36 5 0 5 C0 3.35 0 1.7 0 0 Z " fill="#221D18" transform="translate(34,64)"/>
<path d="M0 0 C1.32 0 2.64 0 4 0 C4 1.65 4 3.3 4 5 C2.68 5 1.36 5 0 5 C0 3.35 0 1.7 0 0 Z " fill="#F2E9E6" transform="translate(100,55)"/>
<path d="M0 0 C1.32 0 2.64 0 4 0 C4 1.65 4 3.3 4 5 C2.68 5 1.36 5 0 5 C0 3.35 0 1.7 0 0 Z " fill="#171817" transform="translate(122,20)"/>
<path d="M0 0 C1.32 0 2.64 0 4 0 C4 1.65 4 3.3 4 5 C2.68 5 1.36 5 0 5 C0 3.35 0 1.7 0 0 Z " fill="#251612" transform="translate(38,20)"/>
<path d="M0 0 C1.65 0 3.3 0 5 0 C5 1.32 5 2.64 5 4 C3.35 4 1.7 4 0 4 C0 2.68 0 1.36 0 0 Z " fill="#16191A" transform="translate(117,16)"/>
<path d="M0 0 C1.65 0 3.3 0 5 0 C5 1.32 5 2.64 5 4 C3.35 4 1.7 4 0 4 C0 2.68 0 1.36 0 0 Z " fill="#F5E7D5" transform="translate(135,69)"/>
<path d="M0 0 C6.15234375 0.5859375 6.15234375 0.5859375 8 1 C8.33 1.66 8.66 2.32 9 3 C6.03 3 3.06 3 0 3 C0 2.01 0 1.02 0 0 Z " fill="#F5E7D5" transform="translate(100,4)"/>
<path d="M0 0 C0.33 1.32 0.66 2.64 1 4 C-1.64 4 -4.28 4 -7 4 C-7 3.34 -7 2.68 -7 2 C-4.69 1.34 -2.38 0.68 0 0 Z " fill="#F5E7D5" transform="translate(63,3)"/>
</svg>

